<svg width="84" height="23" viewBox="0 0 84 23" fill="none" xmlns="http://www.w3.org/2000/svg">
    <path d="M24.2238 2.5388C24.1571 5.49236 23.9432 11.1244 23.9432 14.8171C23.9432 16.073 24.0099 18.1235 24.0877 18.6042C24.1599 19.0515 24.2293 19.271 24.4099 19.4405C24.6683 19.6822 25.5683 19.7684 26.0434 19.7684C26.2767 19.7684 26.5101 19.7211 26.7435 19.7211C27.7797 19.6267 28.5658 19.346 29.4048 18.9737L29.5159 18.9293C29.5409 18.9237 29.6326 18.9237 29.6382 19.021C29.6437 19.1154 29.6382 19.2071 29.6382 19.2071C29.6382 19.9601 29.2298 20.8131 28.8131 21.241C28.5047 21.555 28.1047 21.9078 27.5824 22.2079C26.9379 22.5802 25.8962 22.7386 25.0739 22.7553C24.2821 22.772 23.4543 22.608 22.8681 22.3357C19.7317 20.877 20.1401 15.32 20.1151 11.9719C20.1039 10.691 20.1623 7.81798 20.2095 5.80911C20.2567 3.94195 20.304 2.44711 20.3484 2.35264C20.4151 1.88862 20.7762 1.13843 21.2818 1.13843H21.3763C21.4707 1.13843 21.5624 1.18566 21.6096 1.18566C21.843 1.28013 22.0764 1.46629 22.0764 1.46629C22.1236 0.627178 22.3569 0.579943 22.4958 0.579943H22.5431C22.857 0.579943 23.2487 0.065918 23.5237 0.065918H23.5709C24.1015 0.065918 24.2238 0.793889 24.2238 1.37182V2.5388Z" fill="#0B4C81" />
    <path d="M39.4114 6.91133C40.4837 7.37812 41.4199 8.07831 42.2116 8.96466C43.0061 9.851 43.5645 10.9263 43.9368 12.046C44.2174 12.8851 44.3563 13.8215 44.3563 14.7078C44.3563 15.0357 44.3563 15.3163 44.309 15.5942C44.1674 16.8084 43.8423 17.9754 43.2812 18.9562C42.72 19.9843 41.9283 20.8234 41.0421 21.4791C40.1086 22.1793 39.028 22.6211 38.0084 22.8322C37.764 22.8822 37.2806 22.9517 36.7778 22.9795C36.2583 23.0101 36.036 22.9934 35.6666 22.9989C34.1247 23.0212 32.4524 22.4571 31.0995 21.4763C29.4188 20.2149 28.3464 18.4422 27.9242 16.575C27.7853 15.9693 27.738 15.3608 27.738 14.7995C27.738 14.0521 27.8297 13.3992 27.9714 12.7907C28.577 10.315 30.1188 8.35616 32.4996 7.04748C33.5719 6.48622 34.7859 6.16113 36.0472 6.16113C37.2167 6.16391 38.339 6.44454 39.4114 6.91133ZM36.0499 9.80655C35.3499 9.85378 34.6498 10.0399 33.997 10.3678C33.3441 10.6957 32.8302 11.2069 32.4107 11.7682C31.9912 12.3294 31.6634 12.9824 31.4773 13.6826C31.3828 14.0549 31.3384 14.4772 31.3384 14.8496C31.3384 15.1774 31.3856 15.5025 31.4328 15.8304C31.619 16.9973 32.2718 18.0726 33.1135 18.7728C33.9997 19.5675 35.2137 19.987 36.2888 19.987C37.5501 19.987 38.7641 19.473 39.603 18.7728C40.6781 17.8865 41.331 16.625 41.6116 15.5525V15.3664C41.6116 14.6189 41.4727 13.8715 41.1449 13.1241C40.8643 12.4239 40.3976 11.771 39.8836 11.2569C39.3697 10.7901 38.7641 10.4178 38.1112 10.1372C37.5501 9.9038 36.9445 9.80933 36.3361 9.80933H36.0499V9.80655Z" fill="#0B4C81" />
    <path d="M46.737 0.0544061C46.812 0.0933054 47.2037 0.335036 47.2037 0.335036C47.3426 0.426727 47.5287 0.521197 47.6704 0.521197C48.0316 0.521197 48.3427 0.0544061 48.6511 0.0544061C49.1483 0.0544061 49.3511 0.657344 49.3511 1.22138C49.3983 1.5937 49.3983 2.01604 49.3983 2.29389V7.98985C50.4818 7.44804 51.8152 6.9618 53.4126 6.9618C54.2071 6.9618 55.0461 7.05627 55.8406 7.28966C58.9798 8.27604 61.6301 11.0962 61.6301 15.1334C61.6301 15.1334 61.6301 15.2862 61.6301 15.5502C61.6301 15.8169 61.6301 16.067 61.6301 16.067C61.2161 19.7124 58.0714 22.8827 54.3016 22.8827C53.8015 22.8827 53.2793 22.8688 52.9015 22.741C51.3596 22.3687 50.3345 21.574 49.9151 20.7794C49.7289 20.4515 49.6345 20.1736 49.6345 19.893C49.6345 19.4735 49.8206 19.0984 50.1012 18.7733H50.1484C50.1956 18.7733 50.2401 18.7733 50.2873 18.8205C51.1291 19.5679 52.2958 19.9875 53.4154 19.9875C55.9684 19.9875 58.0325 17.9731 58.2242 15.5974V15.2223C58.2242 12.6022 56.2073 10.4127 53.5098 10.4127C51.7152 10.4127 50.0845 11.2907 49.4483 12.5605H49.4011V22.5993C49.4011 22.691 49.3067 22.7854 49.2622 22.7854C45.7897 22.7854 45.5063 17.309 45.4341 13.4941V2.2022C45.4341 1.31863 45.548 0.173882 46.2897 0.0238425C46.3425 0.0127284 46.5314 -0.0400634 46.7537 0.0599632" fill="#0B4C81" />
    <path d="M15.7507 5.65332C15.9368 5.65332 16.1202 5.74779 16.2174 5.88672C16.3035 6.00619 16.3313 6.06732 16.3646 6.2118C16.4063 6.38685 16.4035 6.54245 16.4035 6.68137V7.61495C16.3091 9.15703 16.2174 11.4938 16.1702 13.5943C16.1229 14.6224 16.1229 15.7893 16.1229 16.8646C16.1229 17.2842 16.1452 17.6565 16.1702 18.0316C16.2007 18.4956 16.3091 19.1514 16.4035 19.2458C16.4508 19.3403 16.5785 19.4514 16.7313 19.5265C17.2203 19.771 18.2259 19.6654 18.2259 19.6654C18.7399 19.6181 19.2066 19.5265 19.7205 19.3847C20.0955 19.2903 20.5623 19.1514 20.9817 18.9652L21.0567 18.9457C21.104 18.9457 21.1429 18.9513 21.1706 19.0124C21.2123 19.1125 21.2179 19.2458 21.2179 19.432C21.2179 19.6181 21.2179 19.8043 21.1706 19.9932C21.0762 20.4128 20.8901 20.8796 20.5178 21.3492C20.3317 21.6298 20.0511 21.8632 19.7233 22.0966C19.4899 22.2355 19.1621 22.3772 18.7426 22.5161C18.3704 22.6551 17.9009 22.7968 17.3897 22.8412H17.0175C16.6424 22.8412 16.1757 22.794 15.709 22.7023C15.1006 22.5634 14.495 22.2355 13.9339 21.7215C13.3255 21.1158 12.906 20.4128 12.7199 19.7598C12.5809 19.2931 12.5226 18.8263 12.4865 18.4984C12.3976 17.6787 12.217 15.4142 12.2531 13.5471V12.5663C12.2059 12.4718 12.167 12.4023 12.067 12.2856C11.4531 11.5827 10.6669 10.9297 9.73068 10.6519C9.21674 10.5129 8.65558 10.4185 8.14164 10.4185C7.67493 10.4185 7.25267 10.4657 6.83318 10.6046C5.89976 10.8853 5.05802 11.4938 4.4524 12.2384C3.79957 13.0803 3.41064 14.2056 3.41064 15.2809L3.42453 15.6032C3.51898 16.7702 4.07737 17.9399 4.96634 18.7318C5.80809 19.5265 7.06932 19.9932 8.23609 19.9932C9.35842 19.9932 10.5252 19.5737 11.3642 18.8263C11.4114 18.779 11.5031 18.779 11.5503 18.779H11.5975C11.8781 19.0597 12.017 19.432 12.017 19.8071C12.017 20.0877 11.9226 20.46 11.7364 20.7879C11.3169 21.5826 10.2168 22.4161 8.74725 22.7495C8.60002 22.7829 8.54446 22.7995 8.23332 22.844C7.98885 22.8773 7.67215 22.8912 7.34712 22.8912C5.85254 22.8912 4.17182 22.4244 2.72446 21.163C1.2771 19.9488 0.24923 17.9038 0.0603233 16.0477C0.0130966 15.5865 -0.025796 15.1364 0.0214307 14.6752C0.0492111 14.4084 0.0631013 13.8777 0.24923 13.1303C0.529812 12.1023 0.996523 11.0742 1.74382 10.0934C2.77169 8.78471 4.21905 7.80389 5.85254 7.28987C6.64706 7.05647 7.44158 6.962 8.23332 6.962C9.11951 6.962 9.96126 7.05647 10.7558 7.33432C11.3614 7.52048 11.9698 7.80111 12.4365 8.08174C12.4837 7.66219 12.4837 7.38156 12.4837 7.33432C12.5309 7.05369 12.7171 6.86753 12.9032 6.63414C13.0893 6.44798 13.2782 6.40074 13.4644 6.40074C13.5116 6.40074 13.6172 6.41463 13.6644 6.43686C13.7477 6.47576 13.7422 6.46743 13.7922 6.49521L14.2589 6.68137C14.3061 6.07565 14.4922 6.02842 14.6339 6.02842H14.7284C14.8673 6.02842 15.009 5.98119 15.1951 5.84226C15.3812 5.70333 15.5701 5.6561 15.709 5.6561H15.7507V5.65332Z" fill="#0B4C81" />
    <path d="M78.215 5.69775C78.4011 5.69775 78.5844 5.79222 78.6817 5.93115C78.765 6.0534 78.7956 6.11175 78.8289 6.25624C78.8706 6.43128 78.8678 6.58688 78.8678 6.7258V7.65939C78.7734 9.20146 78.6817 11.5354 78.6345 13.6388C78.5872 14.6668 78.5872 15.8338 78.5872 16.9091C78.5872 17.3286 78.6095 17.7009 78.6345 18.076C78.665 18.5401 78.7734 19.1986 78.8678 19.2903C78.915 19.3847 79.0428 19.4959 79.1956 19.5709C79.6846 19.8154 80.6902 19.7098 80.6902 19.7098C81.2041 19.6626 81.6709 19.5709 82.1848 19.4292C82.5598 19.3375 83.0265 19.1958 83.446 19.0096L83.521 18.9902C83.5683 18.9902 83.6071 18.9957 83.6321 19.0569C83.6738 19.1569 83.6794 19.2903 83.6794 19.4764C83.6794 19.6626 83.6794 19.8487 83.6321 20.0377C83.5405 20.4572 83.3516 20.924 82.9793 21.3936C82.7932 21.6742 82.5126 21.9076 82.1848 22.141C81.9514 22.2799 81.6236 22.4216 81.2041 22.5606C80.8291 22.6995 80.3624 22.8412 79.8485 22.8884H79.4762C79.1012 22.8884 78.6345 22.8412 78.1677 22.7495C77.5594 22.6106 76.9537 22.2827 76.3926 21.7687C75.7842 21.1602 75.3647 20.46 75.1786 19.8071C75.0397 19.3403 74.9813 18.8735 74.9452 18.5456C74.8563 17.726 74.6785 15.4615 74.7119 13.5943V12.6135C74.6646 12.5218 74.6257 12.4495 74.5257 12.3329C73.9118 11.6299 73.1256 10.9769 72.1894 10.6991C71.6755 10.5602 71.1143 10.4657 70.6004 10.4657C70.1336 10.4657 69.7114 10.5129 69.2919 10.6518C68.3585 10.9325 67.5167 11.5382 66.9111 12.2856C66.2583 13.1275 65.8694 14.2528 65.8694 15.3281L65.8832 15.6504C65.9777 16.8174 66.5361 17.9871 67.4251 18.779C68.2668 19.5737 69.528 20.0405 70.6948 20.0405C71.8144 20.0405 72.9839 19.6209 73.8229 18.8735C73.8701 18.8262 73.9618 18.8262 74.009 18.8262H74.0562C74.3368 19.1069 74.4757 19.4792 74.4757 19.8543C74.4757 20.1349 74.3813 20.5072 74.1951 20.8351C73.7757 21.6298 72.6756 22.4633 71.206 22.7967C71.0587 22.8301 71.0032 22.8468 70.692 22.8912C70.4476 22.9246 70.1309 22.9384 69.8031 22.9384C68.3085 22.9384 66.6278 22.4717 65.1804 21.2102C63.733 19.996 62.7052 17.951 62.5163 16.095C62.469 15.6337 62.4301 15.1836 62.4801 14.7196C62.5079 14.4529 62.519 13.9222 62.7079 13.1747C62.9885 12.1467 63.4552 11.1186 64.2025 10.1378C65.2304 8.82914 66.6778 7.84833 68.3113 7.3343C69.1058 7.1009 69.9003 7.00644 70.692 7.00644C71.581 7.00644 72.42 7.1009 73.2145 7.37876C73.8201 7.56492 74.4285 7.84555 74.8952 8.12618C74.9424 7.70662 74.9424 7.42599 74.9424 7.37876C74.9897 7.09813 75.1758 6.91197 75.3619 6.67857C75.5481 6.49241 75.737 6.44518 75.9231 6.44518C75.9703 6.44518 76.0759 6.45907 76.1231 6.4813C76.2064 6.52019 76.2009 6.51186 76.2509 6.53964L76.7176 6.7258C76.7648 6.11731 76.951 6.07285 77.0926 6.07285H77.1871C77.326 6.07285 77.4677 6.02562 77.6538 5.88669C77.8399 5.74777 78.0261 5.70053 78.1677 5.70053H78.215V5.69775Z" fill="#0B4C81" />
</svg>
