<svg width="88" height="24" viewBox="0 0 88 24" fill="none" xmlns="http://www.w3.org/2000/svg">
    <path d="M25.2769 2.64875C25.2073 5.73073 24.9841 11.6076 24.9841 15.4608C24.9841 16.7713 25.0537 18.911 25.1349 19.4126C25.2102 19.8794 25.2827 20.1084 25.4711 20.2853C25.7407 20.5375 26.6799 20.6274 27.1756 20.6274C27.4191 20.6274 27.6626 20.5781 27.9061 20.5781C28.9874 20.4796 29.8078 20.1867 30.6832 19.7982L30.7992 19.7518C30.8253 19.746 30.9209 19.746 30.9267 19.8475C30.9325 19.9461 30.9267 20.0418 30.9267 20.0418C30.9267 20.8275 30.5006 21.7176 30.0658 22.1641C29.744 22.4917 29.3266 22.8599 28.7816 23.173C28.1091 23.5615 27.022 23.7268 26.1639 23.7442C25.3378 23.7616 24.4739 23.5905 23.8623 23.3064C20.5895 21.7842 21.0156 15.9856 20.9896 12.4919C20.978 11.1553 21.0388 8.15745 21.0881 6.06125C21.1374 4.11291 21.1867 2.55307 21.2331 2.4545C21.3026 1.97031 21.6795 1.1875 22.2071 1.1875H22.3056C22.4042 1.1875 22.4998 1.23678 22.5491 1.23678C22.7926 1.33536 23.0361 1.52962 23.0361 1.52962C23.0854 0.654022 23.3289 0.604733 23.4738 0.604733H23.5231C23.8507 0.604733 24.2594 0.0683594 24.5464 0.0683594H24.5957C25.1494 0.0683594 25.2769 0.827981 25.2769 1.43104V2.64875Z" fill="white" />
    <path d="M41.1247 7.21226C42.2436 7.69934 43.2205 8.42997 44.0467 9.35485C44.8758 10.2797 45.4584 11.4018 45.8469 12.5702C46.1396 13.4458 46.2846 14.4229 46.2846 15.3477C46.2846 15.6899 46.2846 15.9827 46.2353 16.2726C46.0875 17.5396 45.7483 18.7573 45.1627 19.7808C44.5772 20.8535 43.751 21.7291 42.8263 22.4134C41.8523 23.144 40.7246 23.605 39.6608 23.8253C39.4057 23.8775 38.9013 23.95 38.3766 23.979C37.8345 24.0109 37.6026 23.9935 37.2171 23.9993C35.6082 24.0225 33.8631 23.4339 32.4514 22.4105C30.6976 21.0942 29.5787 19.2444 29.1381 17.2961C28.9931 16.664 28.9438 16.0291 28.9438 15.4434C28.9438 14.6635 29.0395 13.9822 29.1873 13.3472C29.8193 10.7639 31.4281 8.7199 33.9124 7.35433C35.0314 6.76866 36.2982 6.42944 37.6142 6.42944C38.8346 6.43234 40.0057 6.72517 41.1247 7.21226ZM37.6171 10.2333C36.8866 10.2826 36.1561 10.4769 35.4749 10.819C34.7937 11.1611 34.2574 11.6946 33.8197 12.2803C33.3819 12.8659 33.0399 13.5473 32.8457 14.2779C32.7471 14.6664 32.7007 15.1071 32.7007 15.4956C32.7007 15.8377 32.75 16.1769 32.7993 16.5191C32.9935 17.7368 33.6747 18.8588 34.5531 19.5894C35.4778 20.4186 36.7446 20.8564 37.8664 20.8564C39.1825 20.8564 40.4493 20.3201 41.3247 19.5894C42.4465 18.6646 43.1278 17.3483 43.4206 16.2291V16.0349C43.4206 15.255 43.2756 14.475 42.9335 13.6951C42.6408 12.9645 42.1538 12.2832 41.6175 11.7468C41.0812 11.2597 40.4493 10.8712 39.768 10.5784C39.1825 10.3348 38.5505 10.2362 37.9157 10.2362H37.6171V10.2333Z" fill="white" />
    <path d="M48.769 0.0567715C48.8472 0.097362 49.256 0.349603 49.256 0.349603C49.4009 0.44528 49.5951 0.543857 49.743 0.543857C50.1198 0.543857 50.4445 0.0567715 50.7663 0.0567715C51.2851 0.0567715 51.4968 0.685923 51.4968 1.27448C51.546 1.66299 51.546 2.10369 51.546 2.39362V8.33722C52.6766 7.77185 54.068 7.26447 55.7348 7.26447C56.5639 7.26447 57.4393 7.36305 58.2684 7.60659C61.5441 8.63585 64.3095 11.5787 64.3095 15.7914C64.3095 15.7914 64.3095 15.9508 64.3095 16.2263C64.3095 16.5046 64.3095 16.7655 64.3095 16.7655C63.8776 20.5694 60.5962 23.8776 56.6625 23.8776C56.1407 23.8776 55.5957 23.8631 55.2015 23.7297C53.5926 23.3412 52.5229 22.512 52.0852 21.6828C51.891 21.3407 51.7924 21.0507 51.7924 20.7579C51.7924 20.3201 51.9867 19.9287 52.2794 19.5895H52.3287C52.378 19.5895 52.4244 19.5895 52.4737 19.6388C53.352 20.4187 54.5695 20.8565 55.7377 20.8565C58.4017 20.8565 60.5556 18.7545 60.7556 16.2755V15.8841C60.7556 13.1501 58.6511 10.8654 55.8363 10.8654C53.9637 10.8654 52.262 11.7816 51.5982 13.1066H51.5489V23.5818C51.5489 23.6775 51.4504 23.7761 51.404 23.7761C47.7805 23.7761 47.4848 18.0615 47.4094 14.0808V2.29794C47.4094 1.37596 47.5283 0.181442 48.3023 0.0248791C48.3573 0.0132818 48.5545 -0.0418052 48.7864 0.0625702" fill="white" />
    <path d="M16.4355 5.89893C16.6297 5.89893 16.821 5.9975 16.9225 6.14247C17.0123 6.26714 17.0413 6.33092 17.0761 6.48169C17.1196 6.66435 17.1167 6.82671 17.1167 6.97167V7.94584C17.0181 9.55496 16.9225 11.9933 16.8732 14.1852C16.8239 15.2579 16.8239 16.4756 16.8239 17.5977C16.8239 18.0355 16.8471 18.424 16.8732 18.8154C16.9051 19.2996 17.0181 19.9838 17.1167 20.0824C17.166 20.181 17.2993 20.2969 17.4588 20.3752C17.969 20.6304 19.0183 20.5202 19.0183 20.5202C19.5546 20.4709 20.0416 20.3752 20.5779 20.2273C20.9692 20.1288 21.4562 19.9838 21.894 19.7896L21.9722 19.7693C22.0215 19.7693 22.0621 19.7751 22.0911 19.8388C22.1346 19.9432 22.1404 20.0824 22.1404 20.2766C22.1404 20.4709 22.1404 20.6651 22.0911 20.8623C21.9925 21.3001 21.7983 21.7872 21.4099 22.2772C21.2156 22.57 20.9229 22.8135 20.5808 23.0571C20.3373 23.202 19.9952 23.3499 19.5575 23.4949C19.1691 23.6398 18.6792 23.7877 18.1458 23.8341H17.7573C17.366 23.8341 16.879 23.7848 16.392 23.6891C15.7572 23.5442 15.1252 23.202 14.5396 22.6657C13.9048 22.0336 13.4671 21.3001 13.2729 20.6188C13.1279 20.1317 13.067 19.6446 13.0294 19.3025C12.9366 18.4472 12.7482 16.0842 12.7859 14.1359V13.1124C12.7366 13.0138 12.696 12.9414 12.5916 12.8196C11.951 12.0861 11.1306 11.4047 10.1537 11.1148C9.61746 10.9698 9.03189 10.8713 8.49561 10.8713C8.00861 10.8713 7.56799 10.9205 7.13027 11.0655C6.15626 11.3583 5.27792 11.9933 4.64598 12.7703C3.96476 13.6488 3.55892 14.823 3.55892 15.9451L3.57342 16.2814C3.67198 17.4991 4.25464 18.7197 5.18226 19.546C6.0606 20.3752 7.37667 20.8623 8.59417 20.8623C9.76529 20.8623 10.9828 20.4245 11.8582 19.6446C11.9075 19.5953 12.0032 19.5953 12.0525 19.5953H12.1017C12.3945 19.8881 12.5395 20.2766 12.5395 20.668C12.5395 20.9609 12.4409 21.3494 12.2467 21.6915C11.809 22.5207 10.661 23.3905 9.12755 23.7384C8.97392 23.7732 8.91594 23.7906 8.59127 23.837C8.33618 23.8718 8.00571 23.8863 7.66655 23.8863C6.10698 23.8863 4.3532 23.3992 2.84291 22.0829C1.33263 20.8159 0.260066 18.682 0.0629459 16.7453C0.013666 16.264 -0.0269175 15.7943 0.0223624 15.313C0.0513506 15.0347 0.0658447 14.4809 0.260066 13.701C0.552846 12.6282 1.03985 11.5555 1.81963 10.532C2.89219 9.16646 4.40248 8.143 6.10698 7.60662C6.93605 7.36308 7.76511 7.2645 8.59127 7.2645C9.516 7.2645 10.3943 7.36308 11.2234 7.65301C11.8553 7.84727 12.4902 8.1401 12.9772 8.43293C13.0265 7.99513 13.0265 7.7023 13.0265 7.65301C13.0757 7.36018 13.27 7.16593 13.4642 6.92238C13.6584 6.72813 13.8555 6.67884 14.0498 6.67884C14.099 6.67884 14.2092 6.69334 14.2585 6.71653C14.3454 6.75712 14.3396 6.74843 14.3918 6.77742L14.8788 6.97167C14.9281 6.33962 15.1223 6.29033 15.2702 6.29033H15.3687C15.5137 6.29033 15.6615 6.24105 15.8557 6.09608C16.0499 5.95111 16.2471 5.90183 16.392 5.90183H16.4355V5.89893Z" fill="white" />
    <path d="M81.6154 5.94531C81.8096 5.94531 82.001 6.04389 82.1024 6.18886C82.1894 6.31643 82.2213 6.37731 82.256 6.52808C82.2995 6.71073 82.2966 6.87309 82.2966 7.01806V7.99223C82.1981 9.60135 82.1024 12.0368 82.0531 14.2316C82.0039 15.3043 82.0039 16.522 82.0039 17.6441C82.0039 18.0819 82.027 18.4704 82.0531 18.8618C82.085 19.346 82.1981 20.0331 82.2966 20.1288C82.3459 20.2273 82.4793 20.3433 82.6387 20.4216C83.1489 20.6767 84.1983 20.5666 84.1983 20.5666C84.7345 20.5173 85.2215 20.4216 85.7578 20.2737C86.1492 20.1781 86.6362 20.0302 87.0739 19.8359L87.1522 19.8156C87.2014 19.8156 87.242 19.8214 87.2681 19.8852C87.3116 19.9896 87.3174 20.1288 87.3174 20.323C87.3174 20.5173 87.3174 20.7115 87.2681 20.9087C87.1725 21.3465 86.9753 21.8336 86.5869 22.3236C86.3927 22.6164 86.0999 22.8599 85.7578 23.1035C85.5143 23.2484 85.1723 23.3963 84.7345 23.5413C84.3432 23.6862 83.8562 23.8341 83.3199 23.8834H82.9315C82.5401 23.8834 82.0531 23.8341 81.5661 23.7384C80.9313 23.5935 80.2993 23.2513 79.7138 22.715C79.0789 22.08 78.6412 21.3494 78.447 20.668C78.3021 20.181 78.2412 19.6939 78.2035 19.3518C78.1107 18.4965 77.9252 16.1335 77.96 14.1852V13.1617C77.9107 13.066 77.8701 12.9907 77.7658 12.8689C77.1251 12.1354 76.3048 11.454 75.3279 11.1641C74.7916 11.0191 74.206 10.9205 73.6697 10.9205C73.1827 10.9205 72.7421 10.9698 72.3044 11.1148C71.3304 11.4076 70.4521 12.0397 69.8201 12.8196C69.1389 13.6981 68.7331 14.8723 68.7331 15.9943L68.7475 16.3307C68.8461 17.5484 69.4288 18.769 70.3564 19.5953C71.2347 20.4245 72.5508 20.9116 73.7683 20.9116C74.9365 20.9116 76.1569 20.4738 77.0324 19.6939C77.0817 19.6446 77.1773 19.6446 77.2266 19.6446H77.2759C77.5687 19.9374 77.7136 20.3259 77.7136 20.7173C77.7136 21.0102 77.615 21.3987 77.4208 21.7408C76.9831 22.57 75.8352 23.4398 74.3017 23.7877C74.148 23.8225 74.0901 23.8399 73.7654 23.8863C73.5103 23.9211 73.1798 23.9356 72.8378 23.9356C71.2782 23.9356 69.5244 23.4485 68.0141 22.1322C66.5039 20.8652 65.4313 18.7313 65.2342 16.7946C65.1849 16.3133 65.1443 15.8436 65.1965 15.3594C65.2255 15.0811 65.2371 14.5273 65.4342 13.7474C65.727 12.6746 66.214 11.6019 66.9938 10.5784C68.0663 9.21284 69.5766 8.18938 71.2811 7.65301C72.1102 7.40947 72.9392 7.31089 73.7654 7.31089C74.693 7.31089 75.5685 7.40947 76.3975 7.6994C77.0295 7.89365 77.6643 8.18648 78.1513 8.47932C78.2006 8.04152 78.2006 7.74869 78.2006 7.6994C78.2499 7.40657 78.4441 7.21231 78.6383 6.96877C78.8325 6.77452 79.0297 6.72523 79.2239 6.72523C79.2732 6.72523 79.3833 6.73973 79.4326 6.76292C79.5196 6.80351 79.5138 6.79481 79.5659 6.82381L80.053 7.01806C80.1022 6.38311 80.2964 6.33672 80.4443 6.33672H80.5428C80.6878 6.33672 80.8356 6.28743 81.0299 6.14247C81.2241 5.9975 81.4183 5.94821 81.5661 5.94821H81.6154V5.94531Z" fill="white" />
</svg>
