<svg width="24" height="36" viewBox="0 0 24 36" fill="none" xmlns="http://www.w3.org/2000/svg">
    <path d="M23.1943 33.8933C22.2608 33.5155 21.3825 33.031 20.5737 32.4555C21.5346 31.8544 22.2785 30.9309 22.6411 29.8259C23.1855 28.167 22.8002 26.327 21.6357 25.0239C21.3919 24.7511 21.0209 24.6291 20.6628 24.7047C18.9526 25.0645 17.5522 26.3185 17.0078 27.9774C16.9612 28.1197 16.9238 28.2636 16.8907 28.4083C16.5383 27.799 16.2338 27.1588 15.9842 26.4921C15.854 26.1444 15.739 25.7894 15.6392 25.4321C20.0747 23.1927 23.1447 18.8425 23.7296 13.8785C24.3496 8.61781 22.0958 3.37776 17.8477 0.20346C17.5546 -0.0155664 17.1668 -0.0613484 16.8309 0.0836091C11.9614 2.18356 8.55123 6.75608 7.9313 12.0168C7.85439 12.6692 7.82201 13.3213 7.83178 13.9693C5.26413 13.632 2.61104 14.2497 0.435659 15.7743C0.135974 15.9844 -0.0285234 16.3385 0.0040807 16.7029C0.337165 20.4186 2.64331 23.7022 6.02254 25.2728C7.4219 25.9232 8.92715 26.2434 10.4276 26.2434C11.5039 26.2434 12.5774 26.0779 13.6079 25.752C13.7369 26.2433 13.8905 26.7323 14.069 27.2091C15.5261 31.1013 18.5725 34.2286 22.4269 35.7889C22.5526 35.8398 22.6824 35.8639 22.8102 35.8639C23.2144 35.8639 23.5973 35.6225 23.7583 35.2249C23.9703 34.7014 23.7177 34.1052 23.1943 33.8933ZM6.88445 23.4184C4.34815 22.2396 2.56299 19.8613 2.11653 17.1201C3.89737 16.0545 6.00493 15.6912 8.0148 16.0671C8.18782 17.1583 8.48057 18.2244 8.88602 19.2456C7.95436 18.8135 7.07371 18.4047 6.23657 17.9773C5.73365 17.7206 5.11781 17.9201 4.86106 18.423C4.60432 18.9259 4.80381 19.5418 5.30673 19.7985C6.18443 20.2467 7.13097 20.6856 8.04627 21.1102C8.86921 21.4919 9.71407 21.8856 10.5255 22.2913C10.9595 22.9132 11.4407 23.5048 11.9692 24.0579C10.2732 24.3705 8.49205 24.1654 6.88445 23.4184ZM14.1739 18.3924C13.996 19.8496 13.8136 21.3449 13.6355 22.8373C10.888 20.0807 9.50027 16.1751 9.96207 12.2561C10.4734 7.91677 13.1859 4.12004 17.0955 2.21162C20.4546 4.97649 22.2101 9.29977 21.6989 13.6392C21.2371 17.5583 18.9794 21.0343 15.6663 23.0767C15.8438 21.5879 16.026 20.0951 16.2035 18.6403C16.6308 15.1409 17.0726 11.5224 17.4484 7.95369C17.5075 7.39215 17.1002 6.88889 16.5387 6.82981C15.978 6.77119 15.4739 7.178 15.4148 7.73954C15.0408 11.2913 14.6001 14.9013 14.1739 18.3924ZM19.1694 30.8979C18.7874 30.2082 18.7002 29.3785 18.9507 28.615C19.2014 27.8514 19.7632 27.2347 20.4794 26.9055C20.8614 27.5952 20.9486 28.4248 20.6981 29.1884C20.4475 29.952 19.8857 30.5685 19.1694 30.8979Z" fill="#0B4C81" />
</svg>
