<svg width="148" height="81" viewBox="0 0 148 81" fill="none" xmlns="http://www.w3.org/2000/svg">
    <path d="M9.63239 6.24712L9.58704 7.26884C10.9046 7.28041 11.9418 6.11077 12.0167 4.42493C12.0908 2.75612 11.1783 1.40182 9.71386 1.33681C8.53888 1.28466 7.80291 2.1051 7.35078 3.45001L6.99664 4.50921C6.70039 5.41742 6.34056 6.22043 5.4721 6.18188C4.51849 6.13955 3.92925 5.19203 3.98292 3.983C4.02903 2.94425 4.52962 2.04511 5.52107 2.00381L5.56944 0.913971C4.1345 0.952647 3.11246 2.06751 3.02931 3.94067C2.94012 5.95005 3.99634 7.14011 5.40972 7.20285C7.04447 7.27541 7.64115 5.74924 7.91961 4.8573L8.19732 3.98239C8.39633 3.34286 8.78301 2.31923 9.71959 2.3608C10.554 2.39784 11.133 3.19134 11.0816 4.34929C11.0347 5.40507 10.4969 6.18312 9.63239 6.24712Z" fill="#0B4C81" />
    <path d="M9.63239 6.24712L9.60286 5.84821L9.24854 5.87444L9.23278 6.22938L9.63239 6.24712ZM9.58704 7.26884L9.18743 7.2511L9.16905 7.66519L9.58353 7.66883L9.58704 7.26884ZM7.35078 3.45001L6.97163 3.32254L6.97142 3.32317L7.35078 3.45001ZM6.99664 4.50921L6.61727 4.38237L6.61636 4.38516L6.99664 4.50921ZM5.52107 2.00381L5.53771 2.40346L5.9044 2.38818L5.92067 2.02155L5.52107 2.00381ZM5.56944 0.913971L5.96905 0.931709L5.9881 0.502541L5.55867 0.514116L5.56944 0.913971ZM7.91961 4.8573L7.53835 4.73628L7.53779 4.73809L7.91961 4.8573ZM8.19732 3.98239L8.57858 4.10341L8.57925 4.10124L8.19732 3.98239ZM9.23278 6.22938L9.18743 7.2511L9.98664 7.28658L10.032 6.26486L9.23278 6.22938ZM9.58353 7.66883C11.1863 7.68289 12.3353 6.26631 12.4163 4.44266L11.6171 4.40719C11.5484 5.95523 10.6229 6.87792 9.59055 6.86886L9.58353 7.66883ZM12.4163 4.44266C12.4961 2.64421 11.4979 1.01561 9.7316 0.937206L9.69612 1.73642C10.8587 1.78803 11.6854 2.86802 11.6171 4.40719L12.4163 4.44266ZM9.7316 0.937206C9.03442 0.906258 8.4514 1.13871 7.98627 1.57902C7.53302 2.00807 7.20867 2.61744 6.97163 3.32254L7.72993 3.57747C7.94501 2.93767 8.21472 2.46436 8.53624 2.16C8.84586 1.8669 9.21833 1.71521 9.69612 1.73642L9.7316 0.937206ZM6.97142 3.32317L6.61728 4.38237L7.376 4.63604L7.73014 3.57684L6.97142 3.32317ZM6.61636 4.38516C6.46825 4.83923 6.32112 5.20809 6.13066 5.45831C5.95763 5.68564 5.76741 5.7946 5.48984 5.78228L5.45436 6.58149C6.04525 6.60772 6.46917 6.33444 6.76724 5.94285C7.04787 5.57415 7.22878 5.0874 7.37692 4.63325L6.61636 4.38516ZM5.48984 5.78228C5.15667 5.76749 4.88188 5.59974 4.68354 5.29948C4.47997 4.99131 4.35857 4.54033 4.38253 4.00074L3.58331 3.96526C3.5536 4.6347 3.69999 5.262 4.01602 5.74042C4.33729 6.22677 4.83393 6.55395 5.45436 6.58149L5.48984 5.78228ZM4.38253 4.00074C4.40324 3.53406 4.52554 3.13062 4.72391 2.85056C4.91372 2.58257 5.1767 2.4185 5.53771 2.40346L5.50442 1.60415C4.87399 1.63042 4.39095 1.93656 4.07108 2.38816C3.75976 2.82768 3.60871 3.39318 3.58331 3.96526L4.38253 4.00074ZM5.92067 2.02155L5.96905 0.931709L5.16984 0.896232L5.12146 1.98607L5.92067 2.02155ZM5.55867 0.514116C4.73305 0.536369 4.01095 0.871942 3.4892 1.47856C2.97214 2.07971 2.67424 2.91965 2.62971 3.92293L3.42892 3.9584C3.46753 3.08852 3.72223 2.43446 4.09571 2.00022C4.46451 1.57145 4.97089 1.33025 5.58022 1.31383L5.55867 0.514116ZM2.62971 3.92293C2.58193 4.99916 2.83945 5.89846 3.33941 6.54616C3.84292 7.19848 4.57097 7.56601 5.39198 7.60245L5.42745 6.80324C4.83508 6.77695 4.32833 6.51808 3.97269 6.05734C3.61349 5.59198 3.3875 4.89156 3.42892 3.9584L2.62971 3.92293ZM5.39198 7.60245C6.36151 7.64549 7.03399 7.20451 7.48526 6.64209C7.92323 6.09624 8.15975 5.43034 8.30144 4.9765L7.53779 4.73809C7.40101 5.1762 7.19996 5.71935 6.86129 6.14143C6.53591 6.54695 6.09267 6.83277 5.42745 6.80324L5.39198 7.60245ZM8.30087 4.97831L8.57857 4.1034L7.81607 3.86137L7.53836 4.73628L8.30087 4.97831ZM8.57925 4.10124C8.67751 3.78548 8.80855 3.42418 9.00623 3.15026C9.19595 2.88736 9.41239 2.74756 9.70185 2.76041L9.73733 1.96119C9.09021 1.93247 8.64503 2.28369 8.35751 2.6821C8.07795 3.06949 7.91614 3.53976 7.81538 3.86354L8.57925 4.10124ZM9.70185 2.76041C9.98504 2.77298 10.2276 2.90974 10.4047 3.16359C10.5864 3.42394 10.7047 3.81978 10.682 4.33156L11.4812 4.36703C11.5099 3.72086 11.3644 3.14097 11.0608 2.70582C10.7527 2.26418 10.2886 1.98566 9.73733 1.96119L9.70185 2.76041ZM10.682 4.33156C10.6397 5.28556 10.1786 5.80559 9.60286 5.84821L9.66192 6.64603C10.8151 6.56066 11.4298 5.52459 11.4812 4.36703L10.682 4.33156Z" fill="#0B4C81" />
    <path d="M3.45176 14.2653L3.5599 15.2652L10.0674 14.5614L9.95926 13.5615L3.45176 14.2653ZM11.0988 13.9526C11.141 14.3424 11.4809 14.6314 11.8537 14.591C12.2265 14.5507 12.4967 14.1957 12.4546 13.806C12.4124 13.4162 12.0725 13.1272 11.6997 13.1675C11.3269 13.2078 11.0567 13.5628 11.0988 13.9526Z" fill="#0B4C81" />
    <path d="M3.45176 14.2653L3.40875 13.8677L3.01107 13.9107L3.05408 14.3084L3.45176 14.2653ZM3.5599 15.2652L3.16222 15.3082L3.20523 15.7059L3.60291 15.6629L3.5599 15.2652ZM10.0674 14.5614L10.1104 14.959L10.5081 14.916L10.4651 14.5183L10.0674 14.5614ZM9.95926 13.5615L10.3569 13.5185L10.3139 13.1208L9.91625 13.1638L9.95926 13.5615ZM3.05408 14.3084L3.16222 15.3082L3.95758 15.2222L3.84944 14.2223L3.05408 14.3084ZM3.60291 15.6629L10.1104 14.959L10.0244 14.1637L3.51689 14.8675L3.60291 15.6629ZM10.4651 14.5183L10.3569 13.5185L9.56158 13.6045L9.66972 14.6044L10.4651 14.5183ZM9.91625 13.1638L3.40875 13.8677L3.49477 14.663L10.0023 13.9592L9.91625 13.1638ZM10.7012 13.9956C10.765 14.5859 11.2856 15.0548 11.8967 14.9887L11.8107 14.1934C11.6761 14.2079 11.517 14.0989 11.4965 13.9096L10.7012 13.9956ZM11.8967 14.9887C12.5078 14.9226 12.9161 14.3532 12.8522 13.7629L12.0569 13.849C12.0774 14.0382 11.9452 14.1788 11.8107 14.1934L11.8967 14.9887ZM12.8522 13.7629C12.7884 13.1727 12.2678 12.7037 11.6567 12.7698L11.7427 13.5652C11.8773 13.5506 12.0364 13.6597 12.0569 13.849L12.8522 13.7629ZM11.6567 12.7698C11.0456 12.8359 10.6373 13.4053 10.7012 13.9956L11.4965 13.9096C11.476 13.7203 11.6082 13.5798 11.7427 13.5652L11.6567 12.7698Z" fill="#0B4C81" />
    <path d="M4.61014 22.4564L4.88958 23.4225L8.8194 22.2858C9.74045 22.0193 10.5855 22.5024 10.8034 23.2556C11.0153 23.9884 10.6844 24.6386 9.96802 24.8458L5.6616 26.0915L5.94578 27.0739L10.0393 25.8898C10.8499 25.6554 11.5943 25.9901 11.8501 26.8743C12.049 27.562 11.8552 28.2569 10.926 28.5257L6.71779 29.7429L6.99723 30.709L11.2054 29.4918C12.6832 29.0643 13.1371 28.0724 12.8127 26.9508C12.5522 26.0502 11.9481 25.5107 11.2037 25.3756L11.1847 25.3101C11.7661 24.8048 12.0004 24.1426 11.7612 23.3157C11.5244 22.497 10.9562 22.0048 10.209 21.937L10.1854 21.8552L11.1678 21.571L10.8978 20.6377L4.61014 22.4564Z" fill="#0B4C81" />
    <path d="M4.61014 22.4564L4.499 22.0721L4.11475 22.1833L4.2259 22.5675L4.61014 22.4564ZM4.88958 23.4225L4.50534 23.5336L4.61648 23.9179L5.00073 23.8067L4.88958 23.4225ZM5.6616 26.0915L5.55045 25.7072L5.16621 25.8184L5.27735 26.2026L5.6616 26.0915ZM5.94578 27.0739L5.56153 27.1851L5.67267 27.5693L6.05692 27.4582L5.94578 27.0739ZM6.71779 29.7429L6.60664 29.3587L6.2224 29.4698L6.33354 29.8541L6.71779 29.7429ZM6.99723 30.709L6.61298 30.8201L6.72413 31.2044L7.10838 31.0932L6.99723 30.709ZM11.2037 25.3756L10.8194 25.4868L10.8883 25.7249L11.1322 25.7692L11.2037 25.3756ZM11.1847 25.3101L10.9223 25.0082L10.7295 25.1758L10.8005 25.4213L11.1847 25.3101ZM10.209 21.937L9.82479 22.0482L9.90073 22.3107L10.1729 22.3354L10.209 21.937ZM10.1854 21.8552L10.0742 21.4709L9.68997 21.5821L9.80111 21.9663L10.1854 21.8552ZM11.1678 21.571L11.279 21.9552L11.6632 21.8441L11.5521 21.4598L11.1678 21.571ZM10.8978 20.6376L11.2821 20.5265L11.1709 20.1423L10.7867 20.2534L10.8978 20.6376ZM4.2259 22.5675L4.50534 23.5336L5.27383 23.3113L4.99439 22.3452L4.2259 22.5675ZM5.00073 23.8067L8.93054 22.67L8.70825 21.9015L4.77844 23.0382L5.00073 23.8067ZM8.93054 22.67C9.66097 22.4587 10.2687 22.8467 10.4191 23.3668L11.1876 23.1445C10.9023 22.1581 9.81992 21.58 8.70825 21.9015L8.93054 22.67ZM10.4191 23.3668C10.5007 23.6487 10.4709 23.8866 10.379 24.0631C10.2883 24.2374 10.1198 24.3855 9.85687 24.4616L10.0792 25.2301C10.5326 25.0989 10.8878 24.8183 11.0886 24.4325C11.2883 24.0489 11.318 23.5953 11.1876 23.1445L10.4191 23.3668ZM9.85687 24.4616L5.55045 25.7072L5.77274 26.4757L10.0792 25.2301L9.85687 24.4616ZM5.27735 26.2026L5.56153 27.1851L6.33002 26.9628L6.04585 25.9803L5.27735 26.2026ZM6.05692 27.4582L10.1505 26.2741L9.92819 25.5056L5.83463 26.6897L6.05692 27.4582ZM10.1505 26.2741C10.4761 26.1799 10.7567 26.2083 10.9693 26.318C11.1779 26.4258 11.3641 26.6339 11.4658 26.9855L12.2343 26.7632C12.0803 26.2306 11.7664 25.8292 11.3362 25.6072C10.91 25.3871 10.4131 25.3653 9.92819 25.5056L10.1505 26.2741ZM11.4658 26.9855C11.5471 27.2664 11.5355 27.5056 11.45 27.685C11.3693 27.8543 11.1939 28.0318 10.8148 28.1414L11.0371 28.9099C11.5872 28.7508 11.9734 28.4465 12.1722 28.0292C12.3662 27.6221 12.352 27.1699 12.2343 26.7632L11.4658 26.9855ZM10.8148 28.1414L6.60664 29.3587L6.82893 30.1272L11.0371 28.9099L10.8148 28.1414ZM6.33354 29.8541L6.61298 30.8201L7.38148 30.5978L7.10204 29.6318L6.33354 29.8541ZM7.10838 31.0932L11.3166 29.876L11.0943 29.1075L6.88609 30.3247L7.10838 31.0932ZM11.3166 29.876C12.1221 29.643 12.7063 29.2386 13.0304 28.6832C13.3558 28.1254 13.3818 27.4788 13.1969 26.8396L12.4284 27.0619C12.568 27.5444 12.5292 27.9546 12.3394 28.28C12.1481 28.6078 11.7665 28.9131 11.0943 29.1075L11.3166 29.876ZM13.1969 26.8396C12.8993 25.8106 12.186 25.1474 11.2751 24.982L11.1322 25.7692C11.7102 25.8741 12.2051 26.2898 12.4284 27.0619L13.1969 26.8396ZM11.5879 25.2645L11.569 25.199L10.8005 25.4213L10.8194 25.4868L11.5879 25.2645ZM11.4471 25.612C11.7837 25.3195 12.0362 24.9666 12.1632 24.5503C12.2906 24.1331 12.2832 23.6808 12.1455 23.2046L11.377 23.4269C11.4784 23.7775 11.4735 24.0698 11.3981 24.3168C11.3224 24.5646 11.1671 24.7955 10.9223 25.0082L11.4471 25.612ZM12.1455 23.2046C11.8689 22.2486 11.1772 21.6232 10.2452 21.5387L10.1729 22.3354C10.7351 22.3864 11.1798 22.7454 11.377 23.4269L12.1455 23.2046ZM10.5933 21.8259L10.5696 21.744L9.80111 21.9663L9.82479 22.0482L10.5933 21.8259ZM10.2965 22.2394L11.279 21.9552L11.0567 21.1867L10.0742 21.4709L10.2965 22.2394ZM11.5521 21.4598L11.2821 20.5265L10.5136 20.7488L10.7836 21.6821L11.5521 21.4598ZM10.7867 20.2534L4.499 22.0721L4.72129 22.8406L11.009 21.0219L10.7867 20.2534Z" fill="#0B4C81" />
    <path d="M7.84043 38.9959L8.31516 39.8825L11.3656 38.2491L11.4058 38.3242C11.1949 38.6886 10.7048 39.4344 11.3002 40.5463C12.0727 41.9889 13.7688 42.3762 15.6021 41.3945C17.4203 40.4209 18.0383 38.7946 17.2578 37.337C16.6544 36.2099 15.7781 36.2345 15.3729 36.2L15.3166 36.0948L16.2332 35.604L15.7746 34.7475L7.84043 38.9959ZM13.3561 37.1639C14.6484 36.4719 15.8257 36.5763 16.4051 37.6582C17.0085 38.7852 16.3596 39.8481 15.1424 40.4999C13.9102 41.1597 12.6277 41.1117 12.0323 39.9997C11.461 38.9328 12.0488 37.8639 13.3561 37.1639Z" fill="#0B4C81" />
    <path d="M7.84043 38.9959L7.65161 38.6433L7.29898 38.8321L7.4878 39.1847L7.84043 38.9959ZM8.31516 39.8825L7.96253 40.0713L8.15135 40.4239L8.50398 40.2351L8.31516 39.8825ZM11.3656 38.2491L11.7182 38.0603L11.5294 37.7077L11.1768 37.8965L11.3656 38.2491ZM11.4058 38.3242L11.752 38.5247L11.8636 38.3319L11.7585 38.1354L11.4058 38.3242ZM15.3729 36.2L15.0203 36.3888L15.1228 36.5802L15.3391 36.5986L15.3729 36.2ZM15.3166 36.0948L15.1278 35.7422L14.7751 35.931L14.964 36.2837L15.3166 36.0948ZM16.2332 35.604L16.422 35.9566L16.7747 35.7678L16.5859 35.4152L16.2332 35.604ZM15.7746 34.7475L16.1272 34.5587L15.9384 34.206L15.5858 34.3949L15.7746 34.7475ZM7.4878 39.1847L7.96253 40.0713L8.66779 39.6937L8.19306 38.8071L7.4878 39.1847ZM8.50398 40.2351L11.5544 38.6017L11.1768 37.8965L8.12634 39.5299L8.50398 40.2351ZM11.013 38.4379L11.0532 38.5131L11.7585 38.1354L11.7182 38.0603L11.013 38.4379ZM11.0597 38.1238C10.9612 38.2938 10.7482 38.629 10.6585 39.0762C10.5656 39.5387 10.6063 40.0977 10.9476 40.7352L11.6528 40.3575C11.3988 39.883 11.3867 39.5131 11.4428 39.2336C11.502 38.9388 11.6395 38.719 11.752 38.5247L11.0597 38.1238ZM10.9476 40.7352C11.3882 41.5581 12.1033 42.0922 12.9727 42.2713C13.8342 42.4487 14.812 42.2713 15.7909 41.7471L15.4133 41.0419C14.5589 41.4993 13.772 41.6191 13.134 41.4877C12.5039 41.3579 11.9847 40.9772 11.6528 40.3575L10.9476 40.7352ZM15.7909 41.7471C16.763 41.2266 17.4491 40.5127 17.7759 39.6958C18.1055 38.8717 18.0545 37.9773 17.6105 37.1481L16.9052 37.5258C17.2417 38.1542 17.2719 38.8018 17.0331 39.3987C16.7914 40.0028 16.2595 40.5888 15.4133 41.0419L15.7909 41.7471ZM17.6105 37.1481C17.2655 36.504 16.8247 36.1627 16.3905 35.9877C15.9752 35.8205 15.5784 35.816 15.4068 35.8015L15.3391 36.5986C15.5726 36.6184 15.8165 36.619 16.0915 36.7298C16.3476 36.833 16.6466 37.0429 16.9052 37.5258L17.6105 37.1481ZM15.7255 36.0112L15.6692 35.906L14.964 36.2837L15.0203 36.3888L15.7255 36.0112ZM15.5054 36.4475L16.422 35.9566L16.0444 35.2514L15.1278 35.7422L15.5054 36.4475ZM16.5859 35.4152L16.1272 34.5587L15.422 34.9363L15.8806 35.7928L16.5859 35.4152ZM15.5858 34.3949L7.65161 38.6433L8.02925 39.3485L15.9634 35.1001L15.5858 34.3949ZM13.5449 37.5166C14.1456 37.1949 14.6757 37.083 15.0919 37.1419C15.4885 37.1981 15.8203 37.4135 16.0524 37.847L16.7577 37.4694C16.4105 36.821 15.864 36.4433 15.2041 36.3498C14.5637 36.2591 13.859 36.4409 13.1673 36.8113L13.5449 37.5166ZM16.0524 37.847C16.2936 38.2974 16.2795 38.7091 16.0972 39.0814C15.9065 39.471 15.5147 39.8468 14.9536 40.1473L15.3312 40.8525C15.9872 40.5012 16.5286 40.0197 16.8157 39.4332C17.1114 38.8293 17.12 38.1461 16.7577 37.4694L16.0524 37.847ZM14.9536 40.1473C14.3859 40.4512 13.8412 40.5726 13.3981 40.5173C12.9729 40.4642 12.619 40.2481 12.3849 39.8109L11.6796 40.1885C12.041 40.8633 12.6261 41.2271 13.299 41.3111C13.954 41.3929 14.6666 41.2084 15.3312 40.8525L14.9536 40.1473ZM12.3849 39.8109C12.1599 39.3907 12.1666 38.9925 12.349 38.6201C12.5394 38.2311 12.9379 37.8416 13.5449 37.5166L13.1673 36.8113C12.467 37.1863 11.9179 37.6812 11.6305 38.2683C11.3349 38.8721 11.3333 39.5417 11.6796 40.1885L12.3849 39.8109Z" fill="#0B4C81" />
    <path d="M24.4572 44.692L23.8536 43.8875L16.8729 49.1254L17.4765 49.9298L24.4572 44.692Z" fill="#0B4C81" />
    <path d="M24.4572 44.692L24.6972 45.0119L25.0172 44.7718L24.7771 44.4519L24.4572 44.692ZM23.8536 43.8875L24.1736 43.6475L23.9335 43.3275L23.6135 43.5676L23.8536 43.8875ZM16.8729 49.1254L16.6328 48.8054L16.3129 49.0455L16.5529 49.3654L16.8729 49.1254ZM17.4765 49.9298L17.1565 50.1699L17.3966 50.4898L17.7165 50.2497L17.4765 49.9298ZM24.7771 44.4519L24.1736 43.6475L23.5337 44.1276L24.1372 44.932L24.7771 44.4519ZM23.6135 43.5676L16.6328 48.8054L17.1129 49.4453L24.0937 44.2075L23.6135 43.5676ZM16.5529 49.3654L17.1565 50.1699L17.7964 49.6897L17.1928 48.8853L16.5529 49.3654ZM17.7165 50.2497L24.6972 45.0119L24.2171 44.372L17.2364 49.6098L17.7165 50.2497Z" fill="#0B4C81" />
    <path d="M20.8219 57.669C21.4657 58.3088 22.2586 58.4178 23.2455 57.9626L30.4968 54.6191L29.7289 53.832L24.7708 56.2583L24.7224 56.2103L27.1173 51.2368L26.3434 50.4679L23.4227 56.8412L22.9293 57.0717C21.9664 57.5207 21.5799 57.2689 21.1922 56.6192L20.3861 57.0677C20.4226 57.1761 20.58 57.4287 20.8219 57.669Z" fill="#0B4C81" />
    <path d="M23.2455 57.9626L23.078 57.5994L23.0779 57.5994L23.2455 57.9626ZM30.4968 54.6191L30.6643 54.9823L31.1786 54.7451L30.7831 54.3397L30.4968 54.6191ZM29.7289 53.832L30.0153 53.5527L29.8131 53.3455L29.5531 53.4727L29.7289 53.832ZM24.7708 56.2583L24.4888 56.5421L24.6908 56.7428L24.9466 56.6176L24.7708 56.2583ZM24.7224 56.2103L24.362 56.0367L24.2385 56.2933L24.4405 56.494L24.7224 56.2103ZM27.1173 51.2368L27.4777 51.4104L27.6012 51.1538L27.3992 50.9531L27.1173 51.2368ZM26.3434 50.4679L26.6254 50.1842L26.2187 49.78L25.9798 50.3013L26.3434 50.4679ZM23.4227 56.8412L23.592 57.2035L23.7251 57.1414L23.7863 57.0078L23.4227 56.8412ZM22.9293 57.0717L23.0983 57.4342L23.0986 57.4341L22.9293 57.0717ZM21.1922 56.6192L21.5357 56.4142L21.3368 56.081L20.9977 56.2697L21.1922 56.6192ZM20.3861 57.0677L20.1916 56.7182L19.9007 56.88L20.007 57.1954L20.3861 57.0677ZM20.5399 57.9527C20.915 58.3255 21.353 58.5604 21.8553 58.6233C22.352 58.6855 22.8732 58.5748 23.413 58.3259L23.0779 57.5994C22.6308 57.8056 22.2622 57.868 21.9547 57.8295C21.653 57.7917 21.3726 57.6523 21.1038 57.3853L20.5399 57.9527ZM23.4129 58.3259L30.6643 54.9823L30.3293 54.2558L23.078 57.5994L23.4129 58.3259ZM30.7831 54.3397L30.0153 53.5527L29.4426 54.1114L30.2105 54.8984L30.7831 54.3397ZM29.5531 53.4727L24.595 55.8991L24.9466 56.6176L29.9048 54.1913L29.5531 53.4727ZM25.0527 55.9746L25.0044 55.9265L24.4405 56.494L24.4888 56.5421L25.0527 55.9746ZM25.0828 56.3838L27.4777 51.4104L26.7569 51.0633L24.362 56.0367L25.0828 56.3838ZM27.3992 50.9531L26.6254 50.1842L26.0615 50.7516L26.8353 51.5206L27.3992 50.9531ZM25.9798 50.3013L23.0591 56.6745L23.7863 57.0078L26.7071 50.6346L25.9798 50.3013ZM23.2534 56.4788L22.7599 56.7093L23.0986 57.4341L23.592 57.2035L23.2534 56.4788ZM22.7602 56.7092C22.3091 56.9196 22.0897 56.9172 21.971 56.8778C21.8505 56.8378 21.7205 56.7239 21.5357 56.4142L20.8487 56.8242C21.0516 57.1642 21.3087 57.501 21.7191 57.6371C22.1314 57.7739 22.5866 57.6729 23.0983 57.4342L22.7602 56.7092ZM20.9977 56.2697L20.1916 56.7182L20.5805 57.4173L21.3867 56.9688L20.9977 56.2697ZM20.007 57.1954C20.0432 57.303 20.117 57.4299 20.1985 57.5471C20.2856 57.6725 20.4008 57.8145 20.5399 57.9527L21.1038 57.3853C21.0011 57.2832 20.9167 57.1788 20.8555 57.0907C20.8249 57.0467 20.8016 57.0089 20.7853 56.9796C20.7675 56.9474 20.7634 56.935 20.7651 56.94L20.007 57.1954Z" fill="#0B4C81" />
    <path d="M45.3541 66.32C45.5014 65.3501 45.1595 64.4723 44.0093 63.8763C42.7834 63.2412 41.5146 63.4669 41.0049 64.4506C40.5893 65.2528 40.7877 66.0371 41.7253 66.8396L42.5763 67.5685C43.0922 68.0086 43.2234 68.4317 43.0156 68.8327C42.7568 69.3322 42.0154 69.4664 41.1829 69.0351C40.4527 68.6567 40.1576 68.1055 40.3221 67.3988L39.3648 67.1716C39.0612 68.267 39.6023 69.2144 40.7903 69.8299C42.1411 70.5298 43.4428 70.2683 43.9623 69.2656C44.3818 68.4559 44.1394 67.6825 43.2341 66.8918L42.4812 66.233C41.8808 65.7059 41.6901 65.3144 41.9214 64.8679C42.1802 64.3684 42.8981 64.2797 43.6094 64.6482C44.3888 65.052 44.487 65.65 44.4343 66.1314L45.3541 66.32Z" fill="#0B4C81" />
    <path d="M45.3541 66.32L45.2737 66.7119L45.6863 66.7965L45.7495 66.3801L45.3541 66.32ZM41.7253 66.8396L41.9855 66.5358L41.9854 66.5357L41.7253 66.8396ZM42.5763 67.5685L42.3161 67.8723L42.3167 67.8728L42.5763 67.5685ZM40.3221 67.3988L40.7117 67.4896L40.802 67.1016L40.4145 67.0097L40.3221 67.3988ZM39.3648 67.1716L39.4572 66.7824L39.0822 66.6934L38.9793 67.0648L39.3648 67.1716ZM43.2341 66.8918L42.9706 67.1928L42.971 67.1931L43.2341 66.8918ZM42.4812 66.233L42.2173 66.5336L42.2177 66.534L42.4812 66.233ZM44.4343 66.1314L44.0367 66.088L43.9971 66.4501L44.354 66.5233L44.4343 66.1314ZM45.7495 66.3801C45.8329 65.8311 45.7812 65.2815 45.5249 64.7768C45.2686 64.272 44.8263 63.8491 44.1933 63.5212L43.8253 64.2315C44.3425 64.4995 44.6463 64.8135 44.8116 65.139C44.977 65.4648 45.0226 65.839 44.9586 66.2599L45.7495 66.3801ZM44.1933 63.5212C42.858 62.8293 41.3008 63.01 40.6498 64.2666L41.3601 64.6347C41.7284 63.9237 42.7088 63.653 43.8253 64.2315L44.1933 63.5212ZM40.6498 64.2666C40.4024 64.744 40.3258 65.2462 40.4734 65.7562C40.6176 66.2541 40.9621 66.7128 41.4652 67.1435L41.9854 66.5357C41.5509 66.1638 41.3274 65.8291 41.2419 65.5337C41.1599 65.2504 41.1918 64.9594 41.3601 64.6347L40.6498 64.2666ZM41.4651 67.1434L42.3161 67.8723L42.8365 67.2647L41.9855 66.5358L41.4651 67.1434ZM42.3167 67.8728C42.5439 68.0666 42.6486 68.2258 42.6884 68.3433C42.7231 68.4459 42.717 68.5395 42.6604 68.6487L43.3707 69.0167C43.5219 68.7249 43.5542 68.4064 43.4463 68.0871C43.3434 67.7829 43.1246 67.5104 42.8359 67.2642L42.3167 67.8728ZM42.6604 68.6487C42.6024 68.7606 42.4807 68.8578 42.2625 68.8863C42.0397 68.9154 41.7285 68.8672 41.367 68.6799L40.9989 69.3902C41.4698 69.6342 41.9456 69.7345 42.3662 69.6795C42.7916 69.6239 43.1699 69.4043 43.3707 69.0167L42.6604 68.6487ZM41.367 68.6799C41.0505 68.516 40.8662 68.3341 40.7706 68.1532C40.6782 67.9783 40.6476 67.7648 40.7117 67.4896L39.9325 67.3081C39.8321 67.7395 39.8668 68.155 40.0633 68.527C40.2567 68.8929 40.5851 69.1758 40.9989 69.3902L41.367 68.6799ZM40.4145 67.0097L39.4572 66.7824L39.2724 67.5608L40.2297 67.788L40.4145 67.0097ZM38.9793 67.0648C38.8013 67.7073 38.8689 68.3255 39.167 68.8722C39.461 69.4112 39.9626 69.8516 40.6063 70.1851L40.9743 69.4748C40.43 69.1927 40.067 68.8516 39.8694 68.4892C39.6759 68.1344 39.6248 67.7313 39.7503 67.2784L38.9793 67.0648ZM40.6063 70.1851C42.0646 70.9407 43.6558 70.7267 44.3175 69.4497L43.6071 69.0816C43.2298 69.81 42.2176 70.1189 40.9743 69.4748L40.6063 70.1851ZM44.3175 69.4497C44.5697 68.9629 44.6331 68.4589 44.4773 67.9537C44.3259 67.4629 43.9806 67.0127 43.4972 66.5905L42.971 67.1931C43.3929 67.5615 43.6215 67.8934 43.7128 68.1895C43.7996 68.4711 43.7744 68.7587 43.6071 69.0816L44.3175 69.4497ZM43.4975 66.5908L42.7446 65.9319L42.2177 66.534L42.9706 67.1928L43.4975 66.5908ZM42.745 65.9324C42.4564 65.679 42.3148 65.4978 42.2572 65.3631C42.213 65.2597 42.2126 65.1753 42.2766 65.0519L41.5662 64.6839C41.3988 65.007 41.3781 65.3416 41.5215 65.6774C41.6516 65.9818 41.9055 66.2599 42.2173 66.5336L42.745 65.9324ZM42.2766 65.0519C42.3336 64.9417 42.448 64.8548 42.6466 64.8293C42.8507 64.8031 43.1263 64.8484 43.4254 65.0034L43.7934 64.293C43.3812 64.0795 42.9421 63.9849 42.5448 64.0358C42.1419 64.0875 41.7679 64.2946 41.5662 64.6839L42.2766 65.0519ZM43.4254 65.0034C43.7449 65.1689 43.8942 65.356 43.9682 65.5229C44.0454 65.6968 44.0584 65.8892 44.0367 66.088L44.8319 66.1749C44.8629 65.8922 44.8532 65.545 44.6995 65.1986C44.5428 64.8451 44.2534 64.5314 43.7934 64.293L43.4254 65.0034ZM44.354 66.5233L45.2737 66.7119L45.4344 65.9282L44.5146 65.7396L44.354 66.5233Z" fill="#0B4C81" />
    <path d="M50.0628 73.8913L51.0307 74.1646L52.1424 70.2277C52.403 69.3049 53.2597 68.8428 54.0143 69.0559C54.7484 69.2632 55.1255 69.8878 54.9228 70.6054L53.7045 74.9197L54.6887 75.1976L55.8468 71.0966C56.0761 70.2846 56.7538 69.8295 57.6396 70.0797C58.3285 70.2742 58.816 70.806 58.5531 71.7369L57.3626 75.9527L58.3304 76.226L59.5209 72.0102C59.939 70.5298 59.3368 69.6202 58.2132 69.3029C57.3109 69.0481 56.5337 69.2759 56.0256 69.8364L55.96 69.8179C55.8382 69.0573 55.3999 68.5084 54.5715 68.2745C53.7513 68.0429 53.0332 68.2652 52.5808 68.8636L52.4988 68.8405L52.7767 67.8562L51.8417 67.5922L50.0628 73.8913Z" fill="#0B4C81" />
    <path d="M50.0628 73.8913L49.6779 73.7826L49.5692 74.1675L49.9541 74.2762L50.0628 73.8913ZM51.0307 74.1646L50.922 74.5495L51.3069 74.6583L51.4156 74.2733L51.0307 74.1646ZM53.7045 74.9197L53.3196 74.811L53.2109 75.1959L53.5958 75.3046L53.7045 74.9197ZM54.6887 75.1976L54.58 75.5826L54.965 75.6913L55.0737 75.3063L54.6887 75.1976ZM57.3626 75.9527L56.9776 75.844L56.8689 76.2289L57.2539 76.3376L57.3626 75.9527ZM58.3304 76.226L58.2217 76.611L58.6067 76.7197L58.7154 76.3347L58.3304 76.226ZM56.0256 69.8364L55.9169 70.2214L56.1555 70.2887L56.322 70.1051L56.0256 69.8364ZM55.96 69.8179L55.565 69.8811L55.6054 70.1334L55.8513 70.2028L55.96 69.8179ZM52.5808 68.8636L52.4721 69.2486L52.7351 69.3228L52.8999 69.1048L52.5808 68.8636ZM52.4988 68.8405L52.1138 68.7318L52.0051 69.1167L52.3901 69.2254L52.4988 68.8405ZM52.7767 67.8562L53.1616 67.9649L53.2704 67.58L52.8854 67.4713L52.7767 67.8562ZM51.8417 67.5922L51.9504 67.2072L51.5654 67.0985L51.4567 67.4835L51.8417 67.5922ZM49.9541 74.2762L50.922 74.5495L51.1394 73.7797L50.1715 73.5063L49.9541 74.2762ZM51.4156 74.2733L52.5274 70.3364L51.7575 70.119L50.6457 74.0559L51.4156 74.2733ZM52.5274 70.3364C52.734 69.6046 53.3846 69.2937 53.9056 69.4408L54.123 68.671C53.1348 68.3919 52.072 69.0053 51.7575 70.119L52.5274 70.3364ZM53.9056 69.4408C54.188 69.5206 54.3743 69.6716 54.4755 69.8429C54.5756 70.012 54.6123 70.2334 54.5379 70.4967L55.3078 70.7142C55.4361 70.2599 55.3855 69.8101 55.1641 69.4357C54.944 69.0634 54.5746 68.7985 54.123 68.671L53.9056 69.4408ZM54.5379 70.4967L53.3196 74.811L54.0895 75.0284L55.3078 70.7142L54.5379 70.4967ZM53.5958 75.3046L54.58 75.5826L54.7975 74.8127L53.8132 74.5347L53.5958 75.3046ZM55.0737 75.3063L56.2318 71.2053L55.4619 70.9879L54.3038 75.0889L55.0737 75.3063ZM56.2318 71.2053C56.3239 70.8791 56.4962 70.6559 56.7018 70.5335C56.9035 70.4132 57.1786 70.3651 57.5309 70.4646L57.7483 69.6947C57.2147 69.544 56.7081 69.5984 56.2922 69.8462C55.8802 70.0918 55.5991 70.5021 55.4619 70.9879L56.2318 71.2053ZM57.5309 70.4646C57.8123 70.5441 58.0092 70.6804 58.1164 70.8478C58.2174 71.0057 58.2754 71.2484 58.1682 71.6282L58.9381 71.8456C59.0937 71.2945 59.0394 70.8058 58.7902 70.4165C58.5471 70.0367 58.1558 69.8098 57.7483 69.6947L57.5309 70.4646ZM58.1682 71.6282L56.9776 75.844L57.7475 76.0614L58.9381 71.8456L58.1682 71.6282ZM57.2539 76.3376L58.2217 76.611L58.4391 75.8411L57.4713 75.5678L57.2539 76.3376ZM58.7154 76.3347L59.9059 72.1189L59.136 71.9015L57.9455 76.1173L58.7154 76.3347ZM59.9059 72.1189C60.1338 71.3119 60.0992 70.6022 59.7989 70.0336C59.4973 69.4625 58.9622 69.0988 58.3219 68.918L58.1045 69.6878C58.5878 69.8243 58.9156 70.074 59.0915 70.4072C59.2687 70.7427 59.3262 71.2281 59.136 71.9015L59.9059 72.1189ZM58.3219 68.918C57.2909 68.6268 56.351 68.8819 55.7292 69.5678L56.322 70.1051C56.7165 69.6699 57.3309 69.4694 58.1045 69.6878L58.3219 68.918ZM56.1343 69.4515L56.0687 69.433L55.8513 70.2028L55.9169 70.2214L56.1343 69.4515ZM56.355 69.7547C56.2845 69.3143 56.1183 68.9135 55.832 68.5856C55.5452 68.2571 55.1573 68.0243 54.6802 67.8896L54.4628 68.6595C54.8141 68.7587 55.0596 68.9173 55.2294 69.1118C55.3999 69.307 55.5138 69.5609 55.565 69.8811L56.355 69.7547ZM54.6802 67.8896C53.7225 67.6191 52.826 67.8759 52.2617 68.6224L52.8999 69.1048C53.2403 68.6545 53.7801 68.4667 54.4628 68.6595L54.6802 67.8896ZM52.6895 68.4787L52.6075 68.4555L52.3901 69.2254L52.4721 69.2486L52.6895 68.4787ZM52.8837 68.9492L53.1616 67.9649L52.3918 67.7475L52.1138 68.7318L52.8837 68.9492ZM52.8854 67.4713L51.9504 67.2072L51.733 67.9771L52.668 68.2412L52.8854 67.4713ZM51.4567 67.4835L49.6779 73.7826L50.4478 74L52.2266 67.7009L51.4567 67.4835Z" fill="#0B4C81" />
    <path d="M67.8718 77.7113C69.0108 77.794 69.6502 77.2251 69.8851 76.8149L69.9361 76.8186L69.8719 77.7026L70.875 77.7754L71.1871 73.4742C71.3376 71.4001 69.7737 71.0474 68.9407 70.987C67.9547 70.9154 66.8079 71.174 66.2116 72.3271L67.139 72.7362C67.3945 72.2762 67.9543 71.8041 68.9106 71.8735C69.8329 71.9404 70.2522 72.4622 70.1914 73.2995L70.189 73.3335C70.1538 73.818 69.6639 73.7397 68.4627 73.8064C67.24 73.8757 65.8988 74.0476 65.7902 75.5437C65.6977 76.8187 66.6307 77.6213 67.8718 77.7113ZM68.0901 76.8214C67.2911 76.7634 66.739 76.3645 66.7895 75.6674C66.8451 74.9024 67.5594 74.715 68.3488 74.6697C68.7775 74.6495 69.9252 74.6132 70.11 74.4215L70.0434 75.3395C69.9842 76.1556 69.2802 76.9077 68.0901 76.8214Z" fill="#0B4C81" />
    <path d="M69.8851 76.8149L69.914 76.416L69.663 76.3977L69.5379 76.6162L69.8851 76.8149ZM69.9361 76.8186L70.335 76.8476L70.364 76.4486L69.965 76.4197L69.9361 76.8186ZM69.8719 77.7026L69.473 77.6737L69.444 78.0727L69.843 78.1016L69.8719 77.7026ZM70.875 77.7754L70.846 78.1744L71.245 78.2033L71.2739 77.8044L70.875 77.7754ZM66.2116 72.3271L65.8563 72.1433L65.6608 72.5213L66.0501 72.6931L66.2116 72.3271ZM67.139 72.7362L66.9775 73.1021L67.3114 73.2494L67.4886 72.9304L67.139 72.7362ZM68.4627 73.8064L68.4405 73.407L68.44 73.407L68.4627 73.8064ZM68.3488 74.6697L68.33 74.2701L68.3259 74.2704L68.3488 74.6697ZM70.11 74.4215L70.509 74.4504L70.5889 73.3485L69.8221 74.1439L70.11 74.4215ZM67.8428 78.1103C69.1449 78.2048 69.9258 77.5488 70.2322 77.0136L69.5379 76.6162C69.3746 76.9014 68.8767 77.3832 67.9007 77.3124L67.8428 78.1103ZM69.8561 77.2139L69.9071 77.2176L69.965 76.4197L69.914 76.416L69.8561 77.2139ZM69.5371 76.7897L69.473 77.6737L70.2709 77.7316L70.335 76.8476L69.5371 76.7897ZM69.843 78.1016L70.846 78.1744L70.9039 77.3765L69.9009 77.3037L69.843 78.1016ZM71.2739 77.8044L71.586 73.5032L70.7881 73.4453L70.476 77.7465L71.2739 77.8044ZM71.586 73.5032C71.6699 72.3467 71.2703 71.6009 70.6718 71.1548C70.1034 70.7311 69.4114 70.6201 68.9697 70.588L68.9118 71.3859C69.3031 71.4143 69.8095 71.5098 70.1937 71.7962C70.5476 72.06 70.8547 72.5277 70.7881 73.4453L71.586 73.5032ZM68.9697 70.588C67.9067 70.5109 66.5579 70.7867 65.8563 72.1433L66.5669 72.5108C67.058 71.5613 68.0026 71.32 68.9118 71.3859L68.9697 70.588ZM66.0501 72.6931L66.9775 73.1021L67.3004 72.3702L66.373 71.9611L66.0501 72.6931ZM67.4886 72.9304C67.6762 72.5928 68.0957 72.2154 68.8816 72.2724L68.9395 71.4745C67.8129 71.3928 67.1128 71.9595 66.7893 72.5419L67.4886 72.9304ZM68.8816 72.2724C69.2753 72.301 69.4965 72.4211 69.6183 72.5606C69.7397 72.6997 69.8178 72.9216 69.7925 73.2705L70.5904 73.3284C70.6258 72.84 70.5247 72.3824 70.221 72.0345C69.9177 71.6871 69.4682 71.5129 68.9395 71.4745L68.8816 72.2724ZM69.7925 73.2705L69.79 73.3045L70.5879 73.3624L70.5904 73.3284L69.7925 73.2705ZM69.79 73.3045C69.7865 73.3533 69.7785 73.3292 69.8077 73.3033C69.8207 73.2917 69.8064 73.3126 69.693 73.3328C69.5836 73.3523 69.4331 73.3632 69.2164 73.3729C69.0093 73.3821 68.7429 73.3902 68.4405 73.407L68.4849 74.2057C68.7831 74.1892 69.0284 74.1821 69.252 74.1721C69.4662 74.1625 69.6655 74.1503 69.8332 74.1204C69.9967 74.0913 70.1866 74.0367 70.3389 73.9015C70.5074 73.7519 70.5739 73.5559 70.5879 73.3624L69.79 73.3045ZM68.44 73.407C67.8348 73.4413 67.1186 73.5021 66.5368 73.7788C66.2373 73.9212 65.962 74.1256 65.7545 74.4206C65.5464 74.7164 65.4228 75.08 65.3913 75.5147L66.1892 75.5726C66.2119 75.2593 66.2966 75.0404 66.4088 74.881C66.5214 74.7208 66.6783 74.5974 66.8805 74.5012C67.3021 74.3006 67.8679 74.2408 68.4854 74.2057L68.44 73.407ZM65.3913 75.5147C65.3369 76.264 65.5862 76.8997 66.0501 77.3568C66.5074 77.8073 67.1469 78.0598 67.8428 78.1103L67.9007 77.3124C67.3556 77.2728 66.908 77.079 66.6116 76.7869C66.3219 76.5015 66.151 76.0984 66.1892 75.5726L65.3913 75.5147ZM68.1191 76.4224C67.7718 76.3973 67.5247 76.3003 67.3782 76.1775C67.2467 76.0673 67.1724 75.9189 67.1885 75.6964L66.3906 75.6385C66.3562 76.113 66.5326 76.5126 66.8643 76.7906C67.1809 77.056 67.6094 77.1876 68.0612 77.2203L68.1191 76.4224ZM67.1885 75.6964C67.2052 75.4665 67.3044 75.3443 67.4788 75.2534C67.6842 75.1463 67.9886 75.091 68.3717 75.069L68.3259 74.2704C67.9195 74.2937 67.4721 74.3547 67.109 74.544C66.7151 74.7493 66.4294 75.1033 66.3906 75.6385L67.1885 75.6964ZM68.3676 75.0693C68.5755 75.0595 68.9833 75.0448 69.3598 75.008C69.5476 74.9896 69.7397 74.9647 69.9026 74.9291C69.9838 74.9113 70.0673 74.8889 70.1436 74.8592C70.2114 74.8329 70.3143 74.7859 70.398 74.6991L69.8221 74.1439C69.8595 74.105 69.8861 74.101 69.8541 74.1135C69.8306 74.1226 69.7908 74.1346 69.7317 74.1475C69.614 74.1733 69.4578 74.1946 69.2819 74.2118C68.9312 74.2461 68.5508 74.2598 68.33 74.2701L68.3676 75.0693ZM69.7111 74.3926L69.6444 75.3106L70.4424 75.3685L70.509 74.4504L69.7111 74.3926ZM69.6444 75.3106C69.602 75.8959 69.0993 76.4936 68.1191 76.4224L68.0612 77.2203C69.4611 77.3219 70.3664 76.4152 70.4424 75.3685L69.6444 75.3106Z" fill="#0B4C81" />
    <path d="M82.3106 72.1666C81.9028 71.2743 81.1361 70.7269 79.8473 70.8581C78.4737 70.9978 77.5356 71.8814 77.6478 72.9837C77.7392 73.8824 78.3346 74.4301 79.5586 74.5883L80.6698 74.7322C81.3425 74.818 81.6839 75.1002 81.7296 75.5496C81.7865 76.1092 81.2396 76.6274 80.3069 76.7223C79.4887 76.8056 78.9399 76.5059 78.6907 75.8245L77.7652 76.1585C78.111 77.2413 79.0824 77.7379 80.4136 77.6024C81.9271 77.4484 82.8732 76.5169 82.7589 75.3934C82.6665 74.4862 82.0402 73.9717 80.8497 73.8058L79.859 73.6668C79.068 73.5545 78.694 73.3313 78.6431 72.831C78.5862 72.2714 79.1383 71.804 79.9353 71.7229C80.8086 71.634 81.2182 72.0807 81.4377 72.5124L82.3106 72.1666Z" fill="#0B4C81" />
    <path d="M82.3106 72.1666L82.4579 72.5384L82.8494 72.3833L82.6744 72.0003L82.3106 72.1666ZM79.5586 74.5883L79.61 74.1916L79.6099 74.1916L79.5586 74.5883ZM80.6698 74.7322L80.6184 75.1289L80.6192 75.129L80.6698 74.7322ZM78.6907 75.8245L79.0663 75.6871L78.9295 75.313L78.5549 75.4483L78.6907 75.8245ZM77.7652 76.1585L77.6294 75.7823L77.2669 75.9131L77.3842 76.2802L77.7652 76.1585ZM80.8497 73.8058L80.7941 74.2019L80.7945 74.202L80.8497 73.8058ZM79.859 73.6668L79.8027 74.0628L79.8034 74.0629L79.859 73.6668ZM81.4377 72.5124L81.0812 72.6937L81.2463 73.0185L81.585 72.8843L81.4377 72.5124ZM82.6744 72.0003C82.4436 71.4953 82.0993 71.0637 81.6086 70.7817C81.1177 70.4996 80.5161 70.3879 79.8068 70.4601L79.8878 71.256C80.4673 71.197 80.8935 71.2935 81.2101 71.4754C81.5268 71.6574 81.7698 71.9456 81.9468 72.3328L82.6744 72.0003ZM79.8068 70.4601C78.3106 70.6124 77.1066 71.6162 77.2498 73.0242L78.0457 72.9432C77.9647 72.1466 78.6368 71.3833 79.8878 71.256L79.8068 70.4601ZM77.2498 73.0242C77.3042 73.5591 77.5151 74.0212 77.9179 74.3672C78.3112 74.7049 78.8506 74.9001 79.5074 74.985L79.6099 74.1916C79.0427 74.1183 78.6724 73.9606 78.4391 73.7602C78.2153 73.5681 78.0827 73.3071 78.0457 72.9432L77.2498 73.0242ZM79.5073 74.9849L80.6184 75.1289L80.7212 74.3355L79.61 74.1916L79.5073 74.9849ZM80.6192 75.129C80.9155 75.1668 81.0902 75.2426 81.1879 75.3192C81.2731 75.3861 81.3192 75.4677 81.3317 75.5901L82.1276 75.5091C82.0943 75.182 81.9469 74.8979 81.6818 74.6899C81.4291 74.4916 81.0968 74.3834 80.7204 74.3354L80.6192 75.129ZM81.3317 75.5901C81.3444 75.7154 81.2957 75.8634 81.1288 76.0067C80.9583 76.1531 80.6715 76.2832 80.2664 76.3244L80.3474 77.1203C80.875 77.0666 81.328 76.8901 81.6499 76.6137C81.9754 76.3343 82.1717 75.9434 82.1276 75.5091L81.3317 75.5901ZM80.2664 76.3244C79.9119 76.3605 79.6581 76.3092 79.479 76.2101C79.3059 76.1144 79.1634 75.9526 79.0663 75.6871L78.315 75.9619C78.4672 76.3779 78.7237 76.7066 79.0918 76.9102C79.454 77.1105 79.8838 77.1675 80.3474 77.1203L80.2664 76.3244ZM78.5549 75.4483L77.6294 75.7823L77.901 76.5348L78.8265 76.2008L78.5549 75.4483ZM77.3842 76.2802C77.587 76.9153 77.9821 77.3957 78.5309 77.6899C79.072 77.9799 79.7328 78.0738 80.4541 78.0004L80.3731 77.2045C79.7632 77.2665 79.2727 77.1798 78.9088 76.9848C78.5527 76.7939 78.2892 76.4846 78.1462 76.0369L77.3842 76.2802ZM80.4541 78.0004C82.0881 77.8341 83.3024 76.7838 83.1568 75.353L82.3609 75.4339C82.444 76.25 81.7661 77.0627 80.3731 77.2045L80.4541 78.0004ZM83.1568 75.353C83.1013 74.8075 82.8784 74.3511 82.4714 74.0137C82.0761 73.6859 81.5406 73.4982 80.9049 73.4096L80.7945 74.202C81.3493 74.2793 81.7223 74.4318 81.9608 74.6295C82.1877 74.8176 82.3241 75.0721 82.3609 75.4339L83.1568 75.353ZM80.9053 73.4097L79.9145 73.2706L79.8034 74.0629L80.7941 74.2019L80.9053 73.4097ZM79.9152 73.2707C79.5349 73.2168 79.3172 73.1427 79.1952 73.0615C79.1017 72.9991 79.0551 72.9287 79.0411 72.7905L78.2452 72.8715C78.282 73.2335 78.4479 73.5249 78.7517 73.7273C79.0273 73.9108 79.392 74.0045 79.8027 74.0628L79.9152 73.2707ZM79.0411 72.7905C79.0285 72.6671 79.0765 72.5317 79.2288 72.4017C79.3853 72.268 79.6407 72.155 79.9758 72.1209L79.8948 71.325C79.4329 71.372 79.0137 71.5332 78.7092 71.7934C78.4003 72.0572 78.2008 72.4353 78.2452 72.8715L79.0411 72.7905ZM79.9758 72.1209C80.3338 72.0844 80.5612 72.1592 80.7145 72.2583C80.8742 72.3616 80.9905 72.5155 81.0812 72.6937L81.7942 72.3311C81.6653 72.0776 81.4671 71.7923 81.1488 71.5865C80.8242 71.3766 80.4102 71.2725 79.8948 71.325L79.9758 72.1209ZM81.585 72.8843L82.4579 72.5384L82.1633 71.7947L81.2904 72.1405L81.585 72.8843Z" fill="#0B4C81" />
    <path d="M90.2091 71.7918C89.8908 70.6951 90.4101 69.8699 91.3636 69.5931C92.2722 69.3295 92.9868 69.7432 93.2767 70.7418L94.4169 74.6706L95.3827 74.3903L94.2235 70.396C93.7543 68.7795 92.6751 68.2718 91.3901 68.6448C90.3997 68.9322 89.9549 69.5095 89.8491 70.2457L89.7673 70.2694L88.8741 67.1919L87.9082 67.4722L90.3408 75.8536L91.3066 75.5733L90.2091 71.7918Z" fill="#0B4C81" />
    <path d="M94.4169 74.6706L94.0328 74.7821L94.1443 75.1662L94.5284 75.0547L94.4169 74.6706ZM95.3827 74.3903L95.4942 74.7744L95.8784 74.6629L95.7669 74.2788L95.3827 74.3903ZM89.8491 70.2457L89.9606 70.6298L90.2084 70.5579L90.2451 70.3026L89.8491 70.2457ZM89.7673 70.2694L89.3831 70.3809L89.4946 70.7651L89.8788 70.6536L89.7673 70.2694ZM88.8741 67.1919L89.2582 67.0804L89.1467 66.6962L88.7626 66.8077L88.8741 67.1919ZM87.9082 67.4722L87.7968 67.0881L87.4126 67.1995L87.5241 67.5837L87.9082 67.4722ZM90.3408 75.8536L89.9566 75.9651L90.0681 76.3492L90.4523 76.2378L90.3408 75.8536ZM91.3066 75.5733L91.4181 75.9574L91.8023 75.8459L91.6908 75.4618L91.3066 75.5733ZM90.5933 71.6803C90.4584 71.2158 90.5103 70.848 90.6594 70.5787C90.8093 70.3079 91.0826 70.0912 91.4751 69.9773L91.2521 69.209C90.6911 69.3718 90.228 69.7061 89.9595 70.1913C89.6901 70.6779 89.6415 71.2711 89.825 71.9033L90.5933 71.6803ZM91.4751 69.9773C91.8466 69.8695 92.1337 69.9107 92.3477 70.0379C92.5659 70.1677 92.7674 70.4221 92.8925 70.8533L93.6608 70.6303C93.4961 70.0629 93.1953 69.6112 92.7566 69.3503C92.3137 69.087 91.7892 69.0531 91.2521 69.209L91.4751 69.9773ZM92.8925 70.8533L94.0328 74.7821L94.8011 74.5591L93.6608 70.6303L92.8925 70.8533ZM94.5284 75.0547L95.4942 74.7744L95.2712 74.0061L94.3054 74.2864L94.5284 75.0547ZM95.7669 74.2788L94.6076 70.2845L93.8393 70.5075L94.9986 74.5018L95.7669 74.2788ZM94.6076 70.2845C94.354 69.4108 93.9175 68.7771 93.3127 68.4279C92.7056 68.0774 91.9962 68.0523 91.2786 68.2606L91.5016 69.0289C92.069 68.8642 92.5417 68.9065 92.9127 69.1207C93.2861 69.3363 93.6237 69.7647 93.8393 70.5075L94.6076 70.2845ZM91.2786 68.2606C90.73 68.4198 90.3011 68.6687 89.9923 69.0074C89.6818 69.348 89.5156 69.7544 89.4532 70.1888L90.2451 70.3026C90.2884 70.0007 90.3975 69.7504 90.5835 69.5464C90.7712 69.3406 91.0598 69.1571 91.5016 69.0289L91.2786 68.2606ZM89.7376 69.8615L89.6558 69.8853L89.8788 70.6536L89.9606 70.6298L89.7376 69.8615ZM90.1514 70.1579L89.2582 67.0804L88.4899 67.3034L89.3831 70.3809L90.1514 70.1579ZM88.7626 66.8077L87.7968 67.0881L88.0197 67.8563L88.9856 67.576L88.7626 66.8077ZM87.5241 67.5837L89.9566 75.9651L90.7249 75.7421L88.2924 67.3607L87.5241 67.5837ZM90.4523 76.2378L91.4181 75.9574L91.1951 75.1891L90.2293 75.4695L90.4523 76.2378ZM91.6908 75.4618L90.5933 71.6803L89.825 71.9033L90.9225 75.6848L91.6908 75.4618Z" fill="#0B4C81" />
    <path d="M102.809 71.4785L103.721 71.0551L100.965 65.118L100.053 65.5414L102.809 71.4785ZM100.058 64.3366C100.413 64.1715 100.578 63.7569 100.42 63.4167C100.262 63.0766 99.8393 62.9347 99.4837 63.0997C99.1281 63.2648 98.9635 63.6794 99.1214 64.0196C99.2792 64.3597 99.7022 64.5017 100.058 64.3366Z" fill="#0B4C81" />
    <path d="M102.809 71.4785L102.446 71.6469L102.615 72.0097L102.977 71.8413L102.809 71.4785ZM103.721 71.0551L103.89 71.4179L104.252 71.2495L104.084 70.8866L103.721 71.0551ZM100.965 65.118L101.328 64.9496L101.16 64.5868L100.797 64.7552L100.965 65.118ZM100.053 65.5414L99.8848 65.1786L99.522 65.347L99.6904 65.7098L100.053 65.5414ZM102.977 71.8413L103.89 71.4179L103.553 70.6922L102.641 71.1156L102.977 71.8413ZM104.084 70.8866L101.328 64.9496L100.603 65.2864L103.358 71.2235L104.084 70.8866ZM100.797 64.7552L99.8848 65.1786L100.222 65.9042L101.134 65.4808L100.797 64.7552ZM99.6904 65.7098L102.446 71.6469L103.172 71.3101L100.416 65.373L99.6904 65.7098ZM100.226 64.6994C100.765 64.4495 101.042 63.8059 100.783 63.2483L100.057 63.5852C100.114 63.7079 100.062 63.8936 99.8894 63.9738L100.226 64.6994ZM100.783 63.2483C100.524 62.6908 99.8538 62.4869 99.3153 62.7369L99.6521 63.4625C99.8248 63.3824 100 63.4624 100.057 63.5852L100.783 63.2483ZM99.3153 62.7369C98.7767 62.9869 98.4998 63.6304 98.7585 64.188L99.4842 63.8512C99.4272 63.7284 99.4794 63.5427 99.6521 63.4625L99.3153 62.7369ZM98.7585 64.188C99.0173 64.7455 99.6877 64.9494 100.226 64.6994L99.8894 63.9738C99.7167 64.0539 99.5412 63.9739 99.4842 63.8512L98.7585 64.188Z" fill="#0B4C81" />
    <path d="M108.779 63.8654C108.146 62.9144 108.377 61.9833 109.179 61.4502C109.956 60.9336 110.765 61.1273 111.334 61.9825L113.599 65.3894L114.436 64.8327L112.134 61.369C111.209 59.9779 110.024 59.8038 108.92 60.5374C108.097 61.0847 107.831 61.7935 107.944 62.517L107.873 62.5642L107.306 61.7124L106.497 62.2503L110.121 67.7013L110.958 67.1445L108.779 63.8654Z" fill="#0B4C81" />
    <path d="M113.599 65.3894L113.266 65.6108L113.487 65.944L113.82 65.7225L113.599 65.3894ZM114.436 64.8327L114.658 65.1658L114.991 64.9443L114.769 64.6112L114.436 64.8327ZM107.944 62.517L108.165 62.8501L108.378 62.7084L108.339 62.4555L107.944 62.517ZM107.873 62.5642L107.54 62.7856L107.761 63.1187L108.094 62.8973L107.873 62.5642ZM107.306 61.7124L107.64 61.491L107.418 61.1579L107.085 61.3793L107.306 61.7124ZM106.497 62.2503L106.276 61.9172L105.943 62.1386L106.164 62.4717L106.497 62.2503ZM110.121 67.7013L109.788 67.9227L110.009 68.2558L110.342 68.0344L110.121 67.7013ZM110.958 67.1445L111.18 67.4777L111.513 67.2562L111.291 66.9231L110.958 67.1445ZM109.112 63.644C108.842 63.2383 108.778 62.8724 108.834 62.5752C108.89 62.278 109.075 61.9993 109.4 61.7833L108.957 61.1171C108.48 61.4342 108.15 61.8876 108.048 62.427C107.946 62.9664 108.083 63.5415 108.445 64.0869L109.112 63.644ZM109.4 61.7833C109.714 61.575 109.997 61.531 110.24 61.5904C110.488 61.6512 110.756 61.8357 111.001 62.204L111.667 61.7611C111.343 61.2741 110.923 60.9341 110.43 60.8134C109.931 60.6913 109.421 60.8088 108.957 61.1171L109.4 61.7833ZM111.001 62.204L113.266 65.6108L113.932 65.168L111.667 61.7611L111.001 62.204ZM113.82 65.7225L114.658 65.1658L114.215 64.4996L113.377 65.0563L113.82 65.7225ZM114.769 64.6112L112.467 61.1476L111.801 61.5905L114.103 65.0541L114.769 64.6112ZM112.467 61.1476C111.967 60.395 111.362 59.9216 110.683 59.7665C110.001 59.6106 109.318 59.7926 108.699 60.2043L109.142 60.8705C109.626 60.5485 110.087 60.4508 110.505 60.5464C110.926 60.6426 111.376 60.9519 111.801 61.5905L112.467 61.1476ZM108.699 60.2043C108.237 60.5115 107.909 60.879 107.718 61.2934C107.526 61.7087 107.481 62.1477 107.548 62.5784L108.339 62.4555C108.293 62.1628 108.325 61.8856 108.444 61.6289C108.563 61.3712 108.78 61.1107 109.142 60.8705L108.699 60.2043ZM107.722 62.1839L107.651 62.231L108.094 62.8973L108.165 62.8501L107.722 62.1839ZM108.206 62.3427L107.64 61.491L106.973 61.9339L107.54 62.7856L108.206 62.3427ZM107.085 61.3793L106.276 61.9172L106.719 62.5834L107.528 62.0456L107.085 61.3793ZM106.164 62.4717L109.788 67.9227L110.454 67.4798L106.83 62.0289L106.164 62.4717ZM110.342 68.0344L111.18 67.4777L110.737 66.8114L109.899 67.3682L110.342 68.0344ZM111.291 66.9231L109.112 63.644L108.445 64.0869L110.625 67.366L111.291 66.9231Z" fill="#0B4C81" />
    <path d="M124.492 59.8055C125.612 58.7082 126.012 57.3142 124.831 56.1086L120.12 51.2983L119.426 51.9782L120.154 52.721L120.081 52.7926C119.684 52.7041 118.843 52.4301 117.93 53.3246C116.748 54.4815 116.851 56.2183 118.258 57.6553C119.689 59.1167 121.353 59.1099 122.485 58.0007C123.399 57.1062 123.166 56.2841 123.074 55.8733L123.135 55.8137L124.065 56.7635C124.829 57.5429 124.626 58.4328 123.871 59.1723C123.022 60.0041 122.285 59.8488 121.84 59.7779L121.661 60.7403C122.434 60.9442 123.447 60.8282 124.492 59.8055ZM121.951 57.2598C121.049 58.1424 119.919 57.9137 118.965 56.9395C118.034 55.9896 117.734 54.7811 118.647 53.8866C119.524 53.0279 120.678 53.2809 121.668 54.2917C122.682 55.3268 122.815 56.413 121.951 57.2598Z" fill="#0B4C81" />
    <path d="M120.12 51.2983L120.406 51.0185L120.126 50.7327L119.84 51.0126L120.12 51.2983ZM119.426 51.9782L119.146 51.6924L118.861 51.9723L119.14 52.2581L119.426 51.9782ZM120.154 52.721L120.434 53.0068L120.719 52.7269L120.439 52.4411L120.154 52.721ZM120.081 52.7926L119.994 53.183L120.205 53.2302L120.361 53.0784L120.081 52.7926ZM123.074 55.8733L122.794 55.5875L122.635 55.7435L122.684 55.9609L123.074 55.8733ZM123.135 55.8137L123.421 55.5338L123.141 55.248L122.855 55.5279L123.135 55.8137ZM121.84 59.7779L121.903 59.3829L121.518 59.3215L121.447 59.7048L121.84 59.7779ZM121.661 60.7403L121.268 60.6673L121.2 61.0323L121.559 61.1271L121.661 60.7403ZM124.771 60.0913C125.37 59.5054 125.811 58.8071 125.92 58.0552C126.032 57.2831 125.786 56.5114 125.117 55.8287L124.546 56.3885C125.058 56.9113 125.201 57.4394 125.129 57.9401C125.053 58.4609 124.734 59.0083 124.212 59.5197L124.771 60.0913ZM125.117 55.8287L120.406 51.0185L119.835 51.5782L124.546 56.3885L125.117 55.8287ZM119.84 51.0126L119.146 51.6924L119.706 52.2639L120.4 51.5841L119.84 51.0126ZM119.14 52.2581L119.868 53.0009L120.439 52.4411L119.712 51.6983L119.14 52.2581ZM119.874 52.4352L119.801 52.5068L120.361 53.0784L120.434 53.0068L119.874 52.4352ZM120.168 52.4022C119.994 52.3634 119.614 52.2527 119.164 52.2915C118.696 52.3318 118.172 52.5278 117.65 53.0389L118.209 53.6104C118.601 53.227 118.953 53.1127 119.233 53.0885C119.531 53.0628 119.77 53.1332 119.994 53.183L120.168 52.4022ZM117.65 53.0389C116.978 53.6968 116.662 54.534 116.724 55.4133C116.786 56.2855 117.217 57.1641 117.972 57.9352L118.544 57.3754C117.892 56.7096 117.568 56.0012 117.522 55.3566C117.477 54.719 117.7 54.1094 118.209 53.6104L117.65 53.0389ZM117.972 57.9352C118.742 58.7211 119.605 59.1421 120.461 59.1913C121.32 59.2407 122.126 58.9121 122.765 58.2864L122.205 57.7149C121.712 58.1984 121.12 58.4279 120.507 58.3926C119.89 58.3572 119.205 58.0509 118.544 57.3754L117.972 57.9352ZM122.765 58.2864C123.284 57.7787 123.498 57.2668 123.554 56.8035C123.608 56.3549 123.508 55.9785 123.464 55.7858L122.684 55.9609C122.733 56.1789 122.794 56.4189 122.76 56.7076C122.727 56.9817 122.6 57.3282 122.205 57.7149L122.765 58.2864ZM123.354 56.1591L123.415 56.0995L122.855 55.5279L122.794 55.5875L123.354 56.1591ZM122.849 56.0936L123.779 57.0434L124.351 56.4837L123.421 55.5338L122.849 56.0936ZM123.779 57.0434C124.089 57.3598 124.173 57.6606 124.141 57.9352C124.105 58.2271 123.929 58.5555 123.591 58.8865L124.151 59.458C124.568 59.0495 124.871 58.5632 124.935 58.0305C125.001 57.4805 124.804 56.9467 124.351 56.4837L123.779 57.0434ZM123.591 58.8865C123.222 59.2487 122.899 59.3767 122.64 59.4188C122.368 59.463 122.138 59.4202 121.903 59.3829L121.777 60.1729C121.988 60.2065 122.348 60.2768 122.768 60.2084C123.201 60.138 123.672 59.9277 124.151 59.458L123.591 58.8865ZM121.447 59.7048L121.268 60.6673L122.055 60.8134L122.233 59.8509L121.447 59.7048ZM121.559 61.1271C122.473 61.3683 123.63 61.2089 124.771 60.0913L124.212 59.5197C123.264 60.4475 122.395 60.5202 121.763 60.3536L121.559 61.1271ZM121.671 56.9741C121.3 57.3369 120.912 57.4504 120.53 57.3995C120.132 57.3463 119.688 57.1059 119.25 56.6596L118.679 57.2193C119.196 57.7472 119.794 58.1083 120.425 58.1924C121.072 58.2788 121.7 58.0653 122.231 57.5456L121.671 56.9741ZM119.25 56.6596C118.825 56.225 118.572 55.7593 118.51 55.3348C118.451 54.9283 118.562 54.5301 118.927 54.1724L118.367 53.6008C117.819 54.1375 117.623 54.7909 117.719 55.4497C117.812 56.0906 118.174 56.704 118.679 57.2193L119.25 56.6596ZM118.927 54.1724C119.278 53.8279 119.661 53.7214 120.053 53.7832C120.463 53.8479 120.925 54.105 121.382 54.5716L121.954 54.0118C121.421 53.4677 120.811 53.0928 120.177 52.993C119.526 52.8902 118.892 53.0865 118.367 53.6008L118.927 54.1724ZM121.382 54.5716C121.851 55.0502 122.076 55.5008 122.116 55.8872C122.154 56.2569 122.028 56.624 121.671 56.9741L122.231 57.5456C122.738 57.0489 122.978 56.4495 122.912 55.8056C122.847 55.1784 122.499 54.5683 121.954 54.0118L121.382 54.5716Z" fill="#0B4C81" />
    <path d="M130.467 36.6976L129.766 37.9849L129.182 37.6668C128.614 37.3569 128.445 36.9544 128.763 36.3706C128.901 36.1161 129.043 35.9991 129.122 35.9256L128.497 35.2552C128.364 35.3573 128.127 35.5778 127.891 36.0119C127.442 36.8351 127.504 37.8976 128.492 38.4358L129.285 38.868L128.779 39.796L129.528 40.2038L130.033 39.2757L135.033 41.9995L135.514 41.1163L130.515 38.3926L131.216 37.1053L130.467 36.6976Z" fill="#0B4C81" />
    <path d="M130.467 36.6976L130.659 36.3463L130.308 36.155L130.116 36.5062L130.467 36.6976ZM129.766 37.9849L129.575 38.3361L129.926 38.5275L130.117 38.1762L129.766 37.9849ZM129.122 35.9256L129.394 36.2182L129.687 35.9455L129.414 35.6529L129.122 35.9256ZM128.497 35.2552L128.79 34.9825L128.542 34.7168L128.254 34.9377L128.497 35.2552ZM129.285 38.868L129.636 39.0594L129.828 38.7081L129.476 38.5167L129.285 38.868ZM128.779 39.796L128.428 39.6046L128.237 39.9559L128.588 40.1473L128.779 39.796ZM129.528 40.2038L129.336 40.555L129.688 40.7464L129.879 40.3951L129.528 40.2038ZM130.033 39.2757L130.225 38.9245L129.873 38.7331L129.682 39.0844L130.033 39.2757ZM135.033 41.9995L134.841 42.3507L135.193 42.5421L135.384 42.1908L135.033 41.9995ZM135.514 41.1163L135.865 41.3077L136.057 40.9564L135.705 40.7651L135.514 41.1163ZM130.515 38.3926L130.163 38.2012L129.972 38.5525L130.323 38.7439L130.515 38.3926ZM131.216 37.1053L131.567 37.2967L131.758 36.9455L131.407 36.7541L131.216 37.1053ZM130.116 36.5062L129.415 37.7935L130.117 38.1762L130.819 36.889L130.116 36.5062ZM129.957 37.6336L129.374 37.3156L128.991 38.0181L129.575 38.3361L129.957 37.6336ZM129.374 37.3156C129.13 37.1825 129.045 37.0679 129.018 36.9905C128.995 36.9229 128.986 36.7974 129.114 36.562L128.411 36.1792C128.222 36.5275 128.138 36.8952 128.262 37.2523C128.382 37.5996 128.666 37.8412 128.991 38.0181L129.374 37.3156ZM129.114 36.562C129.218 36.3706 129.315 36.2925 129.394 36.2182L128.849 35.633C128.771 35.7057 128.584 35.8616 128.411 36.1792L129.114 36.562ZM129.414 35.6529L128.79 34.9825L128.204 35.5279L128.829 36.1983L129.414 35.6529ZM128.254 34.9377C128.078 35.0725 127.804 35.3355 127.539 35.8205L128.242 36.2033C128.451 35.8201 128.65 35.6421 128.74 35.5727L128.254 34.9377ZM127.539 35.8205C127.279 36.2981 127.156 36.8631 127.259 37.4054C127.365 37.96 127.702 38.4611 128.3 38.787L128.683 38.0845C128.293 37.8722 128.106 37.573 128.045 37.256C127.983 36.9267 128.053 36.5489 128.242 36.2033L127.539 35.8205ZM128.3 38.787L129.094 39.2192L129.476 38.5167L128.683 38.0845L128.3 38.787ZM128.934 38.6766L128.428 39.6046L129.131 39.9874L129.636 39.0594L128.934 38.6766ZM128.588 40.1473L129.336 40.555L129.719 39.8525L128.971 39.4448L128.588 40.1473ZM129.879 40.3951L130.385 39.4671L129.682 39.0844L129.177 40.0124L129.879 40.3951ZM129.842 39.627L134.841 42.3507L135.224 41.6482L130.225 38.9245L129.842 39.627ZM135.384 42.1908L135.865 41.3077L135.163 40.925L134.681 41.8081L135.384 42.1908ZM135.705 40.7651L130.706 38.0414L130.323 38.7439L135.323 41.4676L135.705 40.7651ZM130.866 38.584L131.567 37.2967L130.865 36.914L130.163 38.2012L130.866 38.584ZM131.407 36.7541L130.659 36.3463L130.276 37.0489L131.024 37.4566L131.407 36.7541Z" fill="#0B4C81" />
    <path d="M140.306 30.7061C140.884 29.0303 140.001 27.4632 138.083 26.8015C136.15 26.1343 134.488 26.823 133.909 28.4988C133.331 30.1746 134.215 31.7417 136.148 32.4089C138.066 33.0706 139.728 32.3819 140.306 30.7061ZM139.452 30.4114C139.013 31.6844 137.717 31.8864 136.476 31.4582C135.236 31.0301 134.324 30.0664 134.763 28.7935C135.203 27.5205 136.514 27.3241 137.755 27.7522C138.996 28.1803 139.891 29.1385 139.452 30.4114Z" fill="#0B4C81" />
    <path d="M140.684 30.8366C141.009 29.8969 140.927 28.966 140.478 28.176C140.033 27.3913 139.245 26.7794 138.214 26.4234L137.953 27.1797C138.839 27.4854 139.452 27.9878 139.783 28.571C140.111 29.149 140.182 29.8396 139.928 30.5756L140.684 30.8366ZM138.214 26.4234C137.175 26.0649 136.174 26.0591 135.337 26.4013C134.494 26.7458 133.855 27.4285 133.531 28.3683L134.287 28.6293C134.541 27.8933 135.023 27.3938 135.639 27.1418C136.261 26.8875 137.058 26.8709 137.953 27.1797L138.214 26.4234ZM133.531 28.3683C133.207 29.3081 133.288 30.2393 133.739 31.0302C134.187 31.8157 134.979 32.4286 136.018 32.787L136.279 32.0308C135.384 31.7221 134.767 31.2178 134.434 30.6339C134.105 30.0555 134.033 29.3652 134.287 28.6293L133.531 28.3683ZM136.018 32.787C137.049 33.143 138.047 33.147 138.881 32.804C139.722 32.4588 140.36 31.7763 140.684 30.8366L139.928 30.5756C139.674 31.3117 139.192 31.8114 138.577 32.0641C137.957 32.3189 137.165 32.3365 136.279 32.0308L136.018 32.787ZM139.074 30.281C138.898 30.792 138.565 31.0682 138.153 31.1888C137.721 31.3149 137.175 31.2763 136.607 31.0801L136.346 31.8364C137.018 32.0683 137.74 32.1428 138.377 31.9567C139.033 31.765 139.567 31.3038 139.83 30.5419L139.074 30.281ZM136.607 31.0801C136.038 30.884 135.58 30.5759 135.314 30.2082C135.059 29.8564 134.966 29.4328 135.141 28.9239L134.385 28.663C134.121 29.4271 134.264 30.1218 134.666 30.6771C135.056 31.2165 135.674 31.6044 136.346 31.8364L136.607 31.0801ZM135.141 28.9239C135.317 28.4151 135.652 28.1394 136.069 28.0194C136.505 27.8939 137.056 27.9342 137.625 28.1303L137.886 27.3741C137.213 27.1421 136.488 27.0665 135.848 27.2505C135.189 27.4399 134.649 27.8989 134.385 28.663L135.141 28.9239ZM137.625 28.1303C138.193 28.3265 138.647 28.6328 138.909 28.998C139.159 29.3472 139.25 29.7699 139.074 30.281L139.83 30.5419C140.093 29.78 139.957 29.0871 139.559 28.532C139.172 27.9928 138.558 27.6061 137.886 27.3741L137.625 28.1303Z" fill="#0B4C81" />
    <path d="M143.517 17.8112C143.772 16.0568 142.61 14.6828 140.603 14.3918C138.578 14.0983 137.075 15.086 136.82 16.8404C136.566 18.5948 137.727 19.9688 139.752 20.2622C141.759 20.5532 143.263 19.5656 143.517 17.8112ZM142.623 17.6816C142.43 19.0142 141.195 19.4552 139.896 19.267C138.597 19.0787 137.521 18.3027 137.714 16.97C137.907 15.6373 139.159 15.1988 140.458 15.3871C141.757 15.5753 142.816 16.3489 142.623 17.6816Z" fill="#0B4C81" />
    <path d="M143.913 17.8686C144.056 16.8847 143.801 15.9856 143.213 15.2936C142.628 14.6061 141.74 14.1525 140.66 13.9959L140.545 14.7876C141.473 14.9221 142.169 15.3009 142.603 15.8118C143.034 16.3182 143.233 16.9832 143.121 17.7538L143.913 17.8686ZM140.66 13.9959C139.572 13.8383 138.588 14.02 137.83 14.5128C137.066 15.0089 136.567 15.7991 136.424 16.783L137.216 16.8978C137.328 16.1273 137.707 15.5464 138.266 15.1835C138.829 14.8173 139.609 14.6519 140.545 14.7876L140.66 13.9959ZM136.424 16.783C136.282 17.7669 136.536 18.6664 137.127 19.3588C137.714 20.0466 138.607 20.5004 139.694 20.6581L139.809 19.8664C138.872 19.7306 138.172 19.3507 137.736 18.8395C137.303 18.333 137.104 17.6683 137.216 16.8978L136.424 16.783ZM139.694 20.6581C140.774 20.8146 141.755 20.6319 142.51 20.1387C143.271 19.6423 143.771 18.8524 143.913 17.8686L143.121 17.7538C143.01 18.5244 142.63 19.1055 142.073 19.4687C141.512 19.8352 140.737 20.0008 139.809 19.8664L139.694 20.6581ZM142.227 17.6242C142.15 18.1592 141.875 18.4929 141.492 18.6885C141.092 18.8931 140.548 18.9574 139.953 18.8711L139.839 19.6628C140.542 19.7648 141.266 19.7028 141.856 19.4008C142.464 19.0898 142.903 18.5366 143.019 17.739L142.227 17.6242ZM139.953 18.8711C139.358 18.7848 138.85 18.568 138.52 18.2566C138.204 17.9587 138.033 17.5601 138.11 17.0274L137.318 16.9126C137.202 17.7125 137.473 18.3683 137.971 18.8386C138.455 19.2954 139.135 19.5608 139.839 19.6628L139.953 18.8711ZM138.11 17.0274C138.187 16.4946 138.465 16.1611 138.852 15.9651C139.257 15.7603 139.806 15.6966 140.401 15.7829L140.516 14.9912C139.812 14.8892 139.085 14.9507 138.491 15.2512C137.88 15.5606 137.434 16.1127 137.318 16.9126L138.11 17.0274ZM140.401 15.7829C140.996 15.8692 141.499 16.0852 141.825 16.3949C142.136 16.6911 142.305 17.0891 142.227 17.6242L143.019 17.739C143.135 16.9413 142.871 16.2863 142.376 15.8154C141.896 15.3581 141.22 15.0932 140.516 14.9912L140.401 15.7829Z" fill="#0B4C81" />
    <path d="M144.266 4.73041C144.21 3.47029 143.408 3.07935 143.04 2.87385L143.035 2.75465L144.04 2.71005L143.997 1.73941L135.278 2.12643L135.323 3.13113L138.541 2.98826L138.545 3.07341C138.214 3.3099 137.448 3.73633 137.505 5.01348C137.578 6.66526 138.94 7.74798 141 7.65652C143.078 7.5643 144.339 6.36517 144.266 4.73041ZM143.357 4.63425C143.413 5.89437 142.335 6.59059 140.939 6.65258C139.56 6.71381 138.459 6.13137 138.402 4.85422C138.348 3.62815 139.307 2.93722 140.771 2.87221C142.253 2.80645 143.304 3.42521 143.357 4.63425Z" fill="#0B4C81" />
    <path d="M143.04 2.87385L142.641 2.89159L142.651 3.11419L142.845 3.22296L143.04 2.87385ZM143.035 2.75465L143.017 2.35504L142.618 2.37278L142.636 2.77238L143.035 2.75465ZM144.04 2.71005L144.058 3.10965L144.457 3.09192L144.439 2.69231L144.04 2.71005ZM143.997 1.73941L144.396 1.72167L144.379 1.32207L143.979 1.33981L143.997 1.73941ZM135.278 2.12643L135.26 1.72683L134.861 1.74457L134.878 2.14417L135.278 2.12643ZM135.323 3.13113L134.923 3.14887L134.941 3.54847L135.34 3.53073L135.323 3.13113ZM138.541 2.98826L138.941 2.97052L138.923 2.57092L138.523 2.58866L138.541 2.98826ZM138.545 3.07341L138.777 3.39879L138.954 3.27253L138.944 3.05567L138.545 3.07341ZM144.666 4.71268C144.634 3.99029 144.383 3.48894 144.067 3.13869C143.761 2.80006 143.407 2.62064 143.236 2.52474L142.845 3.22296C143.041 3.33255 143.272 3.45136 143.473 3.6746C143.664 3.88623 143.843 4.21041 143.866 4.74815L144.666 4.71268ZM143.44 2.85611L143.435 2.73691L142.636 2.77238L142.641 2.89159L143.44 2.85611ZM143.053 3.15425L144.058 3.10965L144.022 2.31044L143.017 2.35504L143.053 3.15425ZM144.439 2.69231L144.396 1.72167L143.597 1.75715L143.64 2.72779L144.439 2.69231ZM143.979 1.33981L135.26 1.72683L135.296 2.52604L144.014 2.13902L143.979 1.33981ZM134.878 2.14417L134.923 3.14887L135.722 3.11339L135.678 2.1087L134.878 2.14417ZM135.34 3.53073L138.559 3.38787L138.523 2.58866L135.305 2.73152L135.34 3.53073ZM138.141 3.006L138.145 3.09114L138.944 3.05567L138.941 2.97052L138.141 3.006ZM138.312 2.74803C138.172 2.84819 137.833 3.05465 137.562 3.41053C137.278 3.78269 137.073 4.30124 137.105 5.03122L137.904 4.99574C137.88 4.44857 138.03 4.11532 138.198 3.89586C138.377 3.66012 138.587 3.53511 138.777 3.39879L138.312 2.74803ZM137.105 5.03122C137.147 5.97089 137.56 6.76591 138.264 7.3061C138.962 7.84156 139.917 8.10502 141.018 8.05612L140.983 7.25691C140.024 7.29948 139.267 7.06731 138.751 6.67132C138.241 6.28008 137.936 5.70785 137.904 4.99574L137.105 5.03122ZM141.018 8.05612C142.128 8.00688 143.059 7.66011 143.709 7.06755C144.365 6.46963 144.707 5.6452 144.666 4.71268L143.866 4.74815C143.898 5.45038 143.646 6.04289 143.17 6.47628C142.689 6.91503 141.951 7.21393 140.983 7.25691L141.018 8.05612ZM142.958 4.65199C142.98 5.14745 142.786 5.51397 142.447 5.77675C142.095 6.0506 141.564 6.22442 140.921 6.25297L140.957 7.05219C141.71 7.01876 142.417 6.81347 142.938 6.40868C143.474 5.99282 143.791 5.38117 143.757 4.61651L142.958 4.65199ZM140.921 6.25297C140.285 6.2812 139.757 6.15817 139.394 5.9206C139.047 5.69362 138.824 5.3468 138.802 4.83648L138.002 4.87195C138.037 5.63878 138.393 6.22176 138.955 6.58998C139.502 6.94761 140.213 7.08518 140.957 7.05219L140.921 6.25297ZM138.802 4.83648C138.78 4.34522 138.955 3.99054 139.267 3.73968C139.595 3.47646 140.108 3.30203 140.789 3.27182L140.753 2.4726C139.969 2.5074 139.271 2.71094 138.766 3.11595C138.247 3.53333 137.97 4.13715 138.002 4.87195L138.802 4.83648ZM140.789 3.27182C141.477 3.24128 142.018 3.37265 142.381 3.60987C142.728 3.83693 142.937 4.17587 142.958 4.65199L143.757 4.61651C143.724 3.88359 143.381 3.30863 142.819 2.94049C142.272 2.58251 141.547 2.43738 140.753 2.4726L140.789 3.27182Z" fill="#0B4C81" />
</svg>
